<?xml version="1.0" encoding="utf-8" standalone="no"?>
<!DOCTYPE svg PUBLIC "-//W3C//DTD SVG 1.1//EN"
  "http://www.w3.org/Graphics/SVG/1.1/DTD/svg11.dtd">
<svg xmlns:xlink="http://www.w3.org/1999/xlink" width="828pt" height="435.6pt" viewBox="0 0 828 435.6" xmlns="http://www.w3.org/2000/svg" version="1.1">
 <metadata>
  <rdf:RDF xmlns:dc="http://purl.org/dc/elements/1.1/" xmlns:cc="http://creativecommons.org/ns#" xmlns:rdf="http://www.w3.org/1999/02/22-rdf-syntax-ns#">
   <cc:Work>
    <dc:type rdf:resource="http://purl.org/dc/dcmitype/StillImage"/>
    <dc:date>2026-03-27T10:48:15.399082</dc:date>
    <dc:format>image/svg+xml</dc:format>
    <dc:creator>
     <cc:Agent>
      <dc:title>Matplotlib v3.10.8, https://matplotlib.org/</dc:title>
     </cc:Agent>
    </dc:creator>
   </cc:Work>
  </rdf:RDF>
 </metadata>
 <defs>
  <style type="text/css">*{stroke-linejoin: round; stroke-linecap: butt}</style>
 </defs>
 <g id="figure_1">
  <g id="patch_1">
   <path d="M 0 435.6 
L 828 435.6 
L 828 0 
L 0 0 
z
" style="fill: #ffffff"/>
  </g>
  <g id="axes_1">
   <g id="patch_2">
    <path d="M 93.234615 402.24351 
L 787.671316 402.24351 
L 787.671316 18.118365 
L 93.234615 18.118365 
z
" style="fill: #ffffff"/>
   </g>
   <g id="PathCollection_1">
    <path d="M 106.800355 389.692358 
C 108.102259 389.692358 109.351016 389.175107 110.271601 388.254522 
C 111.192186 387.333936 111.709438 386.08518 111.709438 384.783276 
C 111.709438 383.481372 111.192186 382.232616 110.271601 381.312031 
C 109.351016 380.391446 108.102259 379.874194 106.800355 379.874194 
C 105.498451 379.874194 104.249695 380.391446 103.32911 381.312031 
C 102.408525 382.232616 101.891273 383.481372 101.891273 384.783276 
C 101.891273 386.08518 102.408525 387.333936 103.32911 388.254522 
C 104.249695 389.175107 105.498451 389.692358 106.800355 389.692358 
z
" clip-path="url(#pe4c6d07c9d)" style="fill: #c2410c; fill-opacity: 0.95; stroke: #111827; stroke-opacity: 0.95; stroke-width: 0.5"/>
    <path d="M 716.93567 355.061862 
C 718.314476 355.061862 719.636994 354.514057 720.611957 353.539095 
C 721.586919 352.564132 722.134724 351.241614 722.134724 349.862808 
C 722.134724 348.484003 721.586919 347.161485 720.611957 346.186522 
C 719.636994 345.21156 718.314476 344.663755 716.93567 344.663755 
C 715.556865 344.663755 714.234347 345.21156 713.259384 346.186522 
C 712.284422 347.161485 711.736617 348.484003 711.736617 349.862808 
C 711.736617 351.241614 712.284422 352.564132 713.259384 353.539095 
C 714.234347 354.514057 715.556865 355.061862 716.93567 355.061862 
z
" clip-path="url(#pe4c6d07c9d)" style="fill: #c2410c; fill-opacity: 0.95; stroke: #111827; stroke-opacity: 0.95; stroke-width: 0.5"/>
    <path d="M 713.382738 320.220008 
C 714.782392 320.220008 716.124908 319.66392 717.114613 318.674215 
C 718.104318 317.68451 718.660406 316.341994 718.660406 314.942341 
C 718.660406 313.542687 718.104318 312.200171 717.114613 311.210466 
C 716.124908 310.220762 714.782392 309.664673 713.382738 309.664673 
C 711.983085 309.664673 710.640569 310.220762 709.650864 311.210466 
C 708.661159 312.200171 708.105071 313.542687 708.105071 314.942341 
C 708.105071 316.341994 708.661159 317.68451 709.650864 318.674215 
C 710.640569 319.66392 711.983085 320.220008 713.382738 320.220008 
z
" clip-path="url(#pe4c6d07c9d)" style="fill: #c2410c; fill-opacity: 0.95; stroke: #111827; stroke-opacity: 0.95; stroke-width: 0.5"/>
    <path d="M 716.612677 285.032704 
C 717.941564 285.032704 719.216203 284.504731 720.155869 283.565065 
C 721.095535 282.6254 721.623507 281.350761 721.623507 280.021873 
C 721.623507 278.692985 721.095535 277.418346 720.155869 276.47868 
C 719.216203 275.539015 717.941564 275.011042 716.612677 275.011042 
C 715.283789 275.011042 714.00915 275.539015 713.069484 276.47868 
C 712.129818 277.418346 711.601846 278.692985 711.601846 280.021873 
C 711.601846 281.350761 712.129818 282.6254 713.069484 283.565065 
C 714.00915 284.504731 715.283789 285.032704 716.612677 285.032704 
z
" clip-path="url(#pe4c6d07c9d)" style="fill: #c2410c; fill-opacity: 0.95; stroke: #111827; stroke-opacity: 0.95; stroke-width: 0.5"/>
    <path d="M 516.679506 249.934289 
C 517.961201 249.934289 519.190575 249.425066 520.096871 248.51877 
C 521.003167 247.612475 521.51239 246.383101 521.51239 245.101405 
C 521.51239 243.819709 521.003167 242.590336 520.096871 241.68404 
C 519.190575 240.777744 517.961201 240.268521 516.679506 240.268521 
C 515.39781 240.268521 514.168436 240.777744 513.26214 241.68404 
C 512.355844 242.590336 511.846621 243.819709 511.846621 245.101405 
C 511.846621 246.383101 512.355844 247.612475 513.26214 248.51877 
C 514.168436 249.425066 515.39781 249.934289 516.679506 249.934289 
z
" clip-path="url(#pe4c6d07c9d)" style="fill: #0f766e; fill-opacity: 0.95; stroke: #111827; stroke-opacity: 0.95; stroke-width: 0.5"/>
    <path d="M 569.973485 215.289333 
C 571.328247 215.289333 572.627704 214.75108 573.585666 213.793119 
C 574.543628 212.835157 575.08188 211.5357 575.08188 210.180938 
C 575.08188 208.826175 574.543628 207.526718 573.585666 206.568756 
C 572.627704 205.610795 571.328247 205.072542 569.973485 205.072542 
C 568.618723 205.072542 567.319265 205.610795 566.361304 206.568756 
C 565.403342 207.526718 564.865089 208.826175 564.865089 210.180938 
C 564.865089 211.5357 565.403342 212.835157 566.361304 213.793119 
C 567.319265 214.75108 568.618723 215.289333 569.973485 215.289333 
z
" clip-path="url(#pe4c6d07c9d)" style="fill: #0f766e; fill-opacity: 0.95; stroke: #111827; stroke-opacity: 0.95; stroke-width: 0.5"/>
    <path d="M 674.300487 180.104135 
C 675.585042 180.104135 676.817158 179.593776 677.725476 178.685459 
C 678.633793 177.777141 679.144153 176.545025 679.144153 175.26047 
C 679.144153 173.975915 678.633793 172.743799 677.725476 171.835481 
C 676.817158 170.927163 675.585042 170.416804 674.300487 170.416804 
C 673.015932 170.416804 671.783816 170.927163 670.875498 171.835481 
C 669.96718 172.743799 669.456821 173.975915 669.456821 175.26047 
C 669.456821 176.545025 669.96718 177.777141 670.875498 178.685459 
C 671.783816 179.593776 673.015932 180.104135 674.300487 180.104135 
z
" clip-path="url(#pe4c6d07c9d)" style="fill: #0f766e; fill-opacity: 0.95; stroke: #111827; stroke-opacity: 0.95; stroke-width: 0.5"/>
    <path d="M 103.893411 146.360799 
C 105.490145 146.360799 107.021696 145.72641 108.150757 144.597349 
C 109.279819 143.468287 109.914208 141.936736 109.914208 140.340002 
C 109.914208 138.743268 109.279819 137.211717 108.150757 136.082655 
C 107.021696 134.953594 105.490145 134.319205 103.893411 134.319205 
C 102.296677 134.319205 100.765126 134.953594 99.636064 136.082655 
C 98.507003 137.211717 97.872614 138.743268 97.872614 140.340002 
C 97.872614 141.936736 98.507003 143.468287 99.636064 144.597349 
C 100.765126 145.72641 102.296677 146.360799 103.893411 146.360799 
z
" clip-path="url(#pe4c6d07c9d)" style="fill: #c2410c; fill-opacity: 0.95; stroke: #111827; stroke-opacity: 0.95; stroke-width: 0.5"/>
    <path d="M 518.940462 110.615037 
C 520.318326 110.615037 521.639941 110.067606 522.614238 109.09331 
C 523.588534 108.119013 524.135965 106.797398 524.135965 105.419534 
C 524.135965 104.041671 523.588534 102.720055 522.614238 101.745759 
C 521.639941 100.771462 520.318326 100.224031 518.940462 100.224031 
C 517.562599 100.224031 516.240983 100.771462 515.266687 101.745759 
C 514.29239 102.720055 513.744959 104.041671 513.744959 105.419534 
C 513.744959 106.797398 514.29239 108.119013 515.266687 109.09331 
C 516.240983 110.067606 517.562599 110.615037 518.940462 110.615037 
z
" clip-path="url(#pe4c6d07c9d)" style="fill: #0f766e; fill-opacity: 0.95; stroke: #111827; stroke-opacity: 0.95; stroke-width: 0.5"/>
    <path d="M 716.93567 75.636143 
C 718.298039 75.636143 719.604792 75.094868 720.568132 74.131528 
C 721.531472 73.168188 722.072747 71.861435 722.072747 70.499067 
C 722.072747 69.136698 721.531472 67.829945 720.568132 66.866605 
C 719.604792 65.903265 718.298039 65.36199 716.93567 65.36199 
C 715.573302 65.36199 714.266549 65.903265 713.303209 66.866605 
C 712.339869 67.829945 711.798594 69.136698 711.798594 70.499067 
C 711.798594 71.861435 712.339869 73.168188 713.303209 74.131528 
C 714.266549 75.094868 715.573302 75.636143 716.93567 75.636143 
z
" clip-path="url(#pe4c6d07c9d)" style="fill: #c2410c; fill-opacity: 0.95; stroke: #111827; stroke-opacity: 0.95; stroke-width: 0.5"/>
    <path d="M 295.105749 40.322015 
C 296.363718 40.322015 297.570333 39.822219 298.459851 38.932701 
C 299.349369 38.043183 299.849165 36.836568 299.849165 35.578599 
C 299.849165 34.32063 299.349369 33.114015 298.459851 32.224497 
C 297.570333 31.334979 296.363718 30.835182 295.105749 30.835182 
C 293.84778 30.835182 292.641165 31.334979 291.751647 32.224497 
C 290.862129 33.114015 290.362332 34.32063 290.362332 35.578599 
C 290.362332 36.836568 290.862129 38.043183 291.751647 38.932701 
C 292.641165 39.822219 293.84778 40.322015 295.105749 40.322015 
z
" clip-path="url(#pe4c6d07c9d)" style="fill: #c2410c; fill-opacity: 0.95; stroke: #111827; stroke-opacity: 0.95; stroke-width: 0.5"/>
   </g>
   <g id="matplotlib.axis_1">
    <g id="xtick_1">
     <g id="line2d_1">
      <path d="M 141.683687 402.24351 
L 141.683687 18.118365 
" clip-path="url(#pe4c6d07c9d)" style="fill: none; stroke: #b0b0b0; stroke-opacity: 0.16; stroke-width: 0.8; stroke-linecap: square"/>
     </g>
     <g id="line2d_2">
      <defs>
       <path id="m469520d851" d="M 0 0 
L 0 3.5 
" style="stroke: #000000; stroke-width: 0.8"/>
      </defs>
      <g>
       <use xlink:href="#m469520d851" x="141.683687" y="402.24351" style="stroke: #000000; stroke-width: 0.8"/>
      </g>
     </g>
     <g id="text_1">
      <!-- 500 -->
      <g transform="translate(132.139937 416.841948) scale(0.1 -0.1)">
       <defs>
        <path id="DejaVuSans-35" d="M 691 4666 
L 3169 4666 
L 3169 4134 
L 1269 4134 
L 1269 2991 
Q 1406 3038 1543 3061 
Q 1681 3084 1819 3084 
Q 2600 3084 3056 2656 
Q 3513 2228 3513 1497 
Q 3513 744 3044 326 
Q 2575 -91 1722 -91 
Q 1428 -91 1123 -41 
Q 819 9 494 109 
L 494 744 
Q 775 591 1075 516 
Q 1375 441 1709 441 
Q 2250 441 2565 725 
Q 2881 1009 2881 1497 
Q 2881 1984 2565 2268 
Q 2250 2553 1709 2553 
Q 1456 2553 1204 2497 
Q 953 2441 691 2322 
L 691 4666 
z
" transform="scale(0.015625)"/>
        <path id="DejaVuSans-30" d="M 2034 4250 
Q 1547 4250 1301 3770 
Q 1056 3291 1056 2328 
Q 1056 1369 1301 889 
Q 1547 409 2034 409 
Q 2525 409 2770 889 
Q 3016 1369 3016 2328 
Q 3016 3291 2770 3770 
Q 2525 4250 2034 4250 
z
M 2034 4750 
Q 2819 4750 3233 4129 
Q 3647 3509 3647 2328 
Q 3647 1150 3233 529 
Q 2819 -91 2034 -91 
Q 1250 -91 836 529 
Q 422 1150 422 2328 
Q 422 3509 836 4129 
Q 1250 4750 2034 4750 
z
" transform="scale(0.015625)"/>
       </defs>
       <use xlink:href="#DejaVuSans-35"/>
       <use xlink:href="#DejaVuSans-30" transform="translate(63.623047 0)"/>
       <use xlink:href="#DejaVuSans-30" transform="translate(127.246094 0)"/>
      </g>
     </g>
    </g>
    <g id="xtick_2">
     <g id="line2d_3">
      <path d="M 222.432141 402.24351 
L 222.432141 18.118365 
" clip-path="url(#pe4c6d07c9d)" style="fill: none; stroke: #b0b0b0; stroke-opacity: 0.16; stroke-width: 0.8; stroke-linecap: square"/>
     </g>
     <g id="line2d_4">
      <g>
       <use xlink:href="#m469520d851" x="222.432141" y="402.24351" style="stroke: #000000; stroke-width: 0.8"/>
      </g>
     </g>
     <g id="text_2">
      <!-- 750 -->
      <g transform="translate(212.888391 416.841948) scale(0.1 -0.1)">
       <defs>
        <path id="DejaVuSans-37" d="M 525 4666 
L 3525 4666 
L 3525 4397 
L 1831 0 
L 1172 0 
L 2766 4134 
L 525 4134 
L 525 4666 
z
" transform="scale(0.015625)"/>
       </defs>
       <use xlink:href="#DejaVuSans-37"/>
       <use xlink:href="#DejaVuSans-35" transform="translate(63.623047 0)"/>
       <use xlink:href="#DejaVuSans-30" transform="translate(127.246094 0)"/>
      </g>
     </g>
    </g>
    <g id="xtick_3">
     <g id="line2d_5">
      <path d="M 303.180594 402.24351 
L 303.180594 18.118365 
" clip-path="url(#pe4c6d07c9d)" style="fill: none; stroke: #b0b0b0; stroke-opacity: 0.16; stroke-width: 0.8; stroke-linecap: square"/>
     </g>
     <g id="line2d_6">
      <g>
       <use xlink:href="#m469520d851" x="303.180594" y="402.24351" style="stroke: #000000; stroke-width: 0.8"/>
      </g>
     </g>
     <g id="text_3">
      <!-- 1000 -->
      <g transform="translate(290.455594 416.841948) scale(0.1 -0.1)">
       <defs>
        <path id="DejaVuSans-31" d="M 794 531 
L 1825 531 
L 1825 4091 
L 703 3866 
L 703 4441 
L 1819 4666 
L 2450 4666 
L 2450 531 
L 3481 531 
L 3481 0 
L 794 0 
L 794 531 
z
" transform="scale(0.015625)"/>
       </defs>
       <use xlink:href="#DejaVuSans-31"/>
       <use xlink:href="#DejaVuSans-30" transform="translate(63.623047 0)"/>
       <use xlink:href="#DejaVuSans-30" transform="translate(127.246094 0)"/>
       <use xlink:href="#DejaVuSans-30" transform="translate(190.869141 0)"/>
      </g>
     </g>
    </g>
    <g id="xtick_4">
     <g id="line2d_7">
      <path d="M 383.929048 402.24351 
L 383.929048 18.118365 
" clip-path="url(#pe4c6d07c9d)" style="fill: none; stroke: #b0b0b0; stroke-opacity: 0.16; stroke-width: 0.8; stroke-linecap: square"/>
     </g>
     <g id="line2d_8">
      <g>
       <use xlink:href="#m469520d851" x="383.929048" y="402.24351" style="stroke: #000000; stroke-width: 0.8"/>
      </g>
     </g>
     <g id="text_4">
      <!-- 1250 -->
      <g transform="translate(371.204048 416.841948) scale(0.1 -0.1)">
       <defs>
        <path id="DejaVuSans-32" d="M 1228 531 
L 3431 531 
L 3431 0 
L 469 0 
L 469 531 
Q 828 903 1448 1529 
Q 2069 2156 2228 2338 
Q 2531 2678 2651 2914 
Q 2772 3150 2772 3378 
Q 2772 3750 2511 3984 
Q 2250 4219 1831 4219 
Q 1534 4219 1204 4116 
Q 875 4013 500 3803 
L 500 4441 
Q 881 4594 1212 4672 
Q 1544 4750 1819 4750 
Q 2544 4750 2975 4387 
Q 3406 4025 3406 3419 
Q 3406 3131 3298 2873 
Q 3191 2616 2906 2266 
Q 2828 2175 2409 1742 
Q 1991 1309 1228 531 
z
" transform="scale(0.015625)"/>
       </defs>
       <use xlink:href="#DejaVuSans-31"/>
       <use xlink:href="#DejaVuSans-32" transform="translate(63.623047 0)"/>
       <use xlink:href="#DejaVuSans-35" transform="translate(127.246094 0)"/>
       <use xlink:href="#DejaVuSans-30" transform="translate(190.869141 0)"/>
      </g>
     </g>
    </g>
    <g id="xtick_5">
     <g id="line2d_9">
      <path d="M 464.677501 402.24351 
L 464.677501 18.118365 
" clip-path="url(#pe4c6d07c9d)" style="fill: none; stroke: #b0b0b0; stroke-opacity: 0.16; stroke-width: 0.8; stroke-linecap: square"/>
     </g>
     <g id="line2d_10">
      <g>
       <use xlink:href="#m469520d851" x="464.677501" y="402.24351" style="stroke: #000000; stroke-width: 0.8"/>
      </g>
     </g>
     <g id="text_5">
      <!-- 1500 -->
      <g transform="translate(451.952501 416.841948) scale(0.1 -0.1)">
       <use xlink:href="#DejaVuSans-31"/>
       <use xlink:href="#DejaVuSans-35" transform="translate(63.623047 0)"/>
       <use xlink:href="#DejaVuSans-30" transform="translate(127.246094 0)"/>
       <use xlink:href="#DejaVuSans-30" transform="translate(190.869141 0)"/>
      </g>
     </g>
    </g>
    <g id="xtick_6">
     <g id="line2d_11">
      <path d="M 545.425955 402.24351 
L 545.425955 18.118365 
" clip-path="url(#pe4c6d07c9d)" style="fill: none; stroke: #b0b0b0; stroke-opacity: 0.16; stroke-width: 0.8; stroke-linecap: square"/>
     </g>
     <g id="line2d_12">
      <g>
       <use xlink:href="#m469520d851" x="545.425955" y="402.24351" style="stroke: #000000; stroke-width: 0.8"/>
      </g>
     </g>
     <g id="text_6">
      <!-- 1750 -->
      <g transform="translate(532.700955 416.841948) scale(0.1 -0.1)">
       <use xlink:href="#DejaVuSans-31"/>
       <use xlink:href="#DejaVuSans-37" transform="translate(63.623047 0)"/>
       <use xlink:href="#DejaVuSans-35" transform="translate(127.246094 0)"/>
       <use xlink:href="#DejaVuSans-30" transform="translate(190.869141 0)"/>
      </g>
     </g>
    </g>
    <g id="xtick_7">
     <g id="line2d_13">
      <path d="M 626.174409 402.24351 
L 626.174409 18.118365 
" clip-path="url(#pe4c6d07c9d)" style="fill: none; stroke: #b0b0b0; stroke-opacity: 0.16; stroke-width: 0.8; stroke-linecap: square"/>
     </g>
     <g id="line2d_14">
      <g>
       <use xlink:href="#m469520d851" x="626.174409" y="402.24351" style="stroke: #000000; stroke-width: 0.8"/>
      </g>
     </g>
     <g id="text_7">
      <!-- 2000 -->
      <g transform="translate(613.449409 416.841948) scale(0.1 -0.1)">
       <use xlink:href="#DejaVuSans-32"/>
       <use xlink:href="#DejaVuSans-30" transform="translate(63.623047 0)"/>
       <use xlink:href="#DejaVuSans-30" transform="translate(127.246094 0)"/>
       <use xlink:href="#DejaVuSans-30" transform="translate(190.869141 0)"/>
      </g>
     </g>
    </g>
    <g id="xtick_8">
     <g id="line2d_15">
      <path d="M 706.922862 402.24351 
L 706.922862 18.118365 
" clip-path="url(#pe4c6d07c9d)" style="fill: none; stroke: #b0b0b0; stroke-opacity: 0.16; stroke-width: 0.8; stroke-linecap: square"/>
     </g>
     <g id="line2d_16">
      <g>
       <use xlink:href="#m469520d851" x="706.922862" y="402.24351" style="stroke: #000000; stroke-width: 0.8"/>
      </g>
     </g>
     <g id="text_8">
      <!-- 2250 -->
      <g transform="translate(694.197862 416.841948) scale(0.1 -0.1)">
       <use xlink:href="#DejaVuSans-32"/>
       <use xlink:href="#DejaVuSans-32" transform="translate(63.623047 0)"/>
       <use xlink:href="#DejaVuSans-35" transform="translate(127.246094 0)"/>
       <use xlink:href="#DejaVuSans-30" transform="translate(190.869141 0)"/>
      </g>
     </g>
    </g>
    <g id="xtick_9">
     <g id="line2d_17">
      <path d="M 787.671316 402.24351 
L 787.671316 18.118365 
" clip-path="url(#pe4c6d07c9d)" style="fill: none; stroke: #b0b0b0; stroke-opacity: 0.16; stroke-width: 0.8; stroke-linecap: square"/>
     </g>
     <g id="line2d_18">
      <g>
       <use xlink:href="#m469520d851" x="787.671316" y="402.24351" style="stroke: #000000; stroke-width: 0.8"/>
      </g>
     </g>
     <g id="text_9">
      <!-- 2500 -->
      <g transform="translate(774.946316 416.841948) scale(0.1 -0.1)">
       <use xlink:href="#DejaVuSans-32"/>
       <use xlink:href="#DejaVuSans-35" transform="translate(63.623047 0)"/>
       <use xlink:href="#DejaVuSans-30" transform="translate(127.246094 0)"/>
       <use xlink:href="#DejaVuSans-30" transform="translate(190.869141 0)"/>
      </g>
     </g>
    </g>
    <g id="text_10">
     <!-- Comprimento de onda da banda #1 (nm) -->
     <g transform="translate(336.83109 430.520073) scale(0.1 -0.1)">
      <defs>
       <path id="DejaVuSans-43" d="M 4122 4306 
L 4122 3641 
Q 3803 3938 3442 4084 
Q 3081 4231 2675 4231 
Q 1875 4231 1450 3742 
Q 1025 3253 1025 2328 
Q 1025 1406 1450 917 
Q 1875 428 2675 428 
Q 3081 428 3442 575 
Q 3803 722 4122 1019 
L 4122 359 
Q 3791 134 3420 21 
Q 3050 -91 2638 -91 
Q 1578 -91 968 557 
Q 359 1206 359 2328 
Q 359 3453 968 4101 
Q 1578 4750 2638 4750 
Q 3056 4750 3426 4639 
Q 3797 4528 4122 4306 
z
" transform="scale(0.015625)"/>
       <path id="DejaVuSans-6f" d="M 1959 3097 
Q 1497 3097 1228 2736 
Q 959 2375 959 1747 
Q 959 1119 1226 758 
Q 1494 397 1959 397 
Q 2419 397 2687 759 
Q 2956 1122 2956 1747 
Q 2956 2369 2687 2733 
Q 2419 3097 1959 3097 
z
M 1959 3584 
Q 2709 3584 3137 3096 
Q 3566 2609 3566 1747 
Q 3566 888 3137 398 
Q 2709 -91 1959 -91 
Q 1206 -91 779 398 
Q 353 888 353 1747 
Q 353 2609 779 3096 
Q 1206 3584 1959 3584 
z
" transform="scale(0.015625)"/>
       <path id="DejaVuSans-6d" d="M 3328 2828 
Q 3544 3216 3844 3400 
Q 4144 3584 4550 3584 
Q 5097 3584 5394 3201 
Q 5691 2819 5691 2113 
L 5691 0 
L 5113 0 
L 5113 2094 
Q 5113 2597 4934 2840 
Q 4756 3084 4391 3084 
Q 3944 3084 3684 2787 
Q 3425 2491 3425 1978 
L 3425 0 
L 2847 0 
L 2847 2094 
Q 2847 2600 2669 2842 
Q 2491 3084 2119 3084 
Q 1678 3084 1418 2786 
Q 1159 2488 1159 1978 
L 1159 0 
L 581 0 
L 581 3500 
L 1159 3500 
L 1159 2956 
Q 1356 3278 1631 3431 
Q 1906 3584 2284 3584 
Q 2666 3584 2933 3390 
Q 3200 3197 3328 2828 
z
" transform="scale(0.015625)"/>
       <path id="DejaVuSans-70" d="M 1159 525 
L 1159 -1331 
L 581 -1331 
L 581 3500 
L 1159 3500 
L 1159 2969 
Q 1341 3281 1617 3432 
Q 1894 3584 2278 3584 
Q 2916 3584 3314 3078 
Q 3713 2572 3713 1747 
Q 3713 922 3314 415 
Q 2916 -91 2278 -91 
Q 1894 -91 1617 61 
Q 1341 213 1159 525 
z
M 3116 1747 
Q 3116 2381 2855 2742 
Q 2594 3103 2138 3103 
Q 1681 3103 1420 2742 
Q 1159 2381 1159 1747 
Q 1159 1113 1420 752 
Q 1681 391 2138 391 
Q 2594 391 2855 752 
Q 3116 1113 3116 1747 
z
" transform="scale(0.015625)"/>
       <path id="DejaVuSans-72" d="M 2631 2963 
Q 2534 3019 2420 3045 
Q 2306 3072 2169 3072 
Q 1681 3072 1420 2755 
Q 1159 2438 1159 1844 
L 1159 0 
L 581 0 
L 581 3500 
L 1159 3500 
L 1159 2956 
Q 1341 3275 1631 3429 
Q 1922 3584 2338 3584 
Q 2397 3584 2469 3576 
Q 2541 3569 2628 3553 
L 2631 2963 
z
" transform="scale(0.015625)"/>
       <path id="DejaVuSans-69" d="M 603 3500 
L 1178 3500 
L 1178 0 
L 603 0 
L 603 3500 
z
M 603 4863 
L 1178 4863 
L 1178 4134 
L 603 4134 
L 603 4863 
z
" transform="scale(0.015625)"/>
       <path id="DejaVuSans-65" d="M 3597 1894 
L 3597 1613 
L 953 1613 
Q 991 1019 1311 708 
Q 1631 397 2203 397 
Q 2534 397 2845 478 
Q 3156 559 3463 722 
L 3463 178 
Q 3153 47 2828 -22 
Q 2503 -91 2169 -91 
Q 1331 -91 842 396 
Q 353 884 353 1716 
Q 353 2575 817 3079 
Q 1281 3584 2069 3584 
Q 2775 3584 3186 3129 
Q 3597 2675 3597 1894 
z
M 3022 2063 
Q 3016 2534 2758 2815 
Q 2500 3097 2075 3097 
Q 1594 3097 1305 2825 
Q 1016 2553 972 2059 
L 3022 2063 
z
" transform="scale(0.015625)"/>
       <path id="DejaVuSans-6e" d="M 3513 2113 
L 3513 0 
L 2938 0 
L 2938 2094 
Q 2938 2591 2744 2837 
Q 2550 3084 2163 3084 
Q 1697 3084 1428 2787 
Q 1159 2491 1159 1978 
L 1159 0 
L 581 0 
L 581 3500 
L 1159 3500 
L 1159 2956 
Q 1366 3272 1645 3428 
Q 1925 3584 2291 3584 
Q 2894 3584 3203 3211 
Q 3513 2838 3513 2113 
z
" transform="scale(0.015625)"/>
       <path id="DejaVuSans-74" d="M 1172 4494 
L 1172 3500 
L 2356 3500 
L 2356 3053 
L 1172 3053 
L 1172 1153 
Q 1172 725 1289 603 
Q 1406 481 1766 481 
L 2356 481 
L 2356 0 
L 1766 0 
Q 1100 0 847 248 
Q 594 497 594 1153 
L 594 3053 
L 172 3053 
L 172 3500 
L 594 3500 
L 594 4494 
L 1172 4494 
z
" transform="scale(0.015625)"/>
       <path id="DejaVuSans-20" transform="scale(0.015625)"/>
       <path id="DejaVuSans-64" d="M 2906 2969 
L 2906 4863 
L 3481 4863 
L 3481 0 
L 2906 0 
L 2906 525 
Q 2725 213 2448 61 
Q 2172 -91 1784 -91 
Q 1150 -91 751 415 
Q 353 922 353 1747 
Q 353 2572 751 3078 
Q 1150 3584 1784 3584 
Q 2172 3584 2448 3432 
Q 2725 3281 2906 2969 
z
M 947 1747 
Q 947 1113 1208 752 
Q 1469 391 1925 391 
Q 2381 391 2643 752 
Q 2906 1113 2906 1747 
Q 2906 2381 2643 2742 
Q 2381 3103 1925 3103 
Q 1469 3103 1208 2742 
Q 947 2381 947 1747 
z
" transform="scale(0.015625)"/>
       <path id="DejaVuSans-61" d="M 2194 1759 
Q 1497 1759 1228 1600 
Q 959 1441 959 1056 
Q 959 750 1161 570 
Q 1363 391 1709 391 
Q 2188 391 2477 730 
Q 2766 1069 2766 1631 
L 2766 1759 
L 2194 1759 
z
M 3341 1997 
L 3341 0 
L 2766 0 
L 2766 531 
Q 2569 213 2275 61 
Q 1981 -91 1556 -91 
Q 1019 -91 701 211 
Q 384 513 384 1019 
Q 384 1609 779 1909 
Q 1175 2209 1959 2209 
L 2766 2209 
L 2766 2266 
Q 2766 2663 2505 2880 
Q 2244 3097 1772 3097 
Q 1472 3097 1187 3025 
Q 903 2953 641 2809 
L 641 3341 
Q 956 3463 1253 3523 
Q 1550 3584 1831 3584 
Q 2591 3584 2966 3190 
Q 3341 2797 3341 1997 
z
" transform="scale(0.015625)"/>
       <path id="DejaVuSans-62" d="M 3116 1747 
Q 3116 2381 2855 2742 
Q 2594 3103 2138 3103 
Q 1681 3103 1420 2742 
Q 1159 2381 1159 1747 
Q 1159 1113 1420 752 
Q 1681 391 2138 391 
Q 2594 391 2855 752 
Q 3116 1113 3116 1747 
z
M 1159 2969 
Q 1341 3281 1617 3432 
Q 1894 3584 2278 3584 
Q 2916 3584 3314 3078 
Q 3713 2572 3713 1747 
Q 3713 922 3314 415 
Q 2916 -91 2278 -91 
Q 1894 -91 1617 61 
Q 1341 213 1159 525 
L 1159 0 
L 581 0 
L 581 4863 
L 1159 4863 
L 1159 2969 
z
" transform="scale(0.015625)"/>
       <path id="DejaVuSans-23" d="M 3272 2816 
L 2363 2816 
L 2100 1772 
L 3016 1772 
L 3272 2816 
z
M 2803 4594 
L 2478 3297 
L 3391 3297 
L 3719 4594 
L 4219 4594 
L 3897 3297 
L 4872 3297 
L 4872 2816 
L 3775 2816 
L 3519 1772 
L 4513 1772 
L 4513 1294 
L 3397 1294 
L 3072 0 
L 2572 0 
L 2894 1294 
L 1978 1294 
L 1656 0 
L 1153 0 
L 1478 1294 
L 494 1294 
L 494 1772 
L 1594 1772 
L 1856 2816 
L 850 2816 
L 850 3297 
L 1978 3297 
L 2297 4594 
L 2803 4594 
z
" transform="scale(0.015625)"/>
       <path id="DejaVuSans-28" d="M 1984 4856 
Q 1566 4138 1362 3434 
Q 1159 2731 1159 2009 
Q 1159 1288 1364 580 
Q 1569 -128 1984 -844 
L 1484 -844 
Q 1016 -109 783 600 
Q 550 1309 550 2009 
Q 550 2706 781 3412 
Q 1013 4119 1484 4856 
L 1984 4856 
z
" transform="scale(0.015625)"/>
       <path id="DejaVuSans-29" d="M 513 4856 
L 1013 4856 
Q 1481 4119 1714 3412 
Q 1947 2706 1947 2009 
Q 1947 1309 1714 600 
Q 1481 -109 1013 -844 
L 513 -844 
Q 928 -128 1133 580 
Q 1338 1288 1338 2009 
Q 1338 2731 1133 3434 
Q 928 4138 513 4856 
z
" transform="scale(0.015625)"/>
      </defs>
      <use xlink:href="#DejaVuSans-43"/>
      <use xlink:href="#DejaVuSans-6f" transform="translate(69.824219 0)"/>
      <use xlink:href="#DejaVuSans-6d" transform="translate(131.005859 0)"/>
      <use xlink:href="#DejaVuSans-70" transform="translate(228.417969 0)"/>
      <use xlink:href="#DejaVuSans-72" transform="translate(291.894531 0)"/>
      <use xlink:href="#DejaVuSans-69" transform="translate(333.007812 0)"/>
      <use xlink:href="#DejaVuSans-6d" transform="translate(360.791016 0)"/>
      <use xlink:href="#DejaVuSans-65" transform="translate(458.203125 0)"/>
      <use xlink:href="#DejaVuSans-6e" transform="translate(519.726562 0)"/>
      <use xlink:href="#DejaVuSans-74" transform="translate(583.105469 0)"/>
      <use xlink:href="#DejaVuSans-6f" transform="translate(622.314453 0)"/>
      <use xlink:href="#DejaVuSans-20" transform="translate(683.496094 0)"/>
      <use xlink:href="#DejaVuSans-64" transform="translate(715.283203 0)"/>
      <use xlink:href="#DejaVuSans-65" transform="translate(778.759766 0)"/>
      <use xlink:href="#DejaVuSans-20" transform="translate(840.283203 0)"/>
      <use xlink:href="#DejaVuSans-6f" transform="translate(872.070312 0)"/>
      <use xlink:href="#DejaVuSans-6e" transform="translate(933.251953 0)"/>
      <use xlink:href="#DejaVuSans-64" transform="translate(996.630859 0)"/>
      <use xlink:href="#DejaVuSans-61" transform="translate(1060.107422 0)"/>
      <use xlink:href="#DejaVuSans-20" transform="translate(1121.386719 0)"/>
      <use xlink:href="#DejaVuSans-64" transform="translate(1153.173828 0)"/>
      <use xlink:href="#DejaVuSans-61" transform="translate(1216.650391 0)"/>
      <use xlink:href="#DejaVuSans-20" transform="translate(1277.929688 0)"/>
      <use xlink:href="#DejaVuSans-62" transform="translate(1309.716797 0)"/>
      <use xlink:href="#DejaVuSans-61" transform="translate(1373.193359 0)"/>
      <use xlink:href="#DejaVuSans-6e" transform="translate(1434.472656 0)"/>
      <use xlink:href="#DejaVuSans-64" transform="translate(1497.851562 0)"/>
      <use xlink:href="#DejaVuSans-61" transform="translate(1561.328125 0)"/>
      <use xlink:href="#DejaVuSans-20" transform="translate(1622.607422 0)"/>
      <use xlink:href="#DejaVuSans-23" transform="translate(1654.394531 0)"/>
      <use xlink:href="#DejaVuSans-31" transform="translate(1738.183594 0)"/>
      <use xlink:href="#DejaVuSans-20" transform="translate(1801.806641 0)"/>
      <use xlink:href="#DejaVuSans-28" transform="translate(1833.59375 0)"/>
      <use xlink:href="#DejaVuSans-6e" transform="translate(1872.607422 0)"/>
      <use xlink:href="#DejaVuSans-6d" transform="translate(1935.986328 0)"/>
      <use xlink:href="#DejaVuSans-29" transform="translate(2033.398438 0)"/>
     </g>
    </g>
   </g>
   <g id="matplotlib.axis_2">
    <g id="ytick_1">
     <g id="line2d_19">
      <defs>
       <path id="ma5752e0bcf" d="M 0 0 
L -3.5 0 
" style="stroke: #000000; stroke-width: 0.8"/>
      </defs>
      <g>
       <use xlink:href="#ma5752e0bcf" x="93.234615" y="384.783276" style="stroke: #000000; stroke-width: 0.8"/>
      </g>
     </g>
     <g id="text_11">
      <!-- Turno manha -->
      <g transform="translate(21.059615 388.582495) scale(0.1 -0.1)">
       <defs>
        <path id="DejaVuSans-54" d="M -19 4666 
L 3928 4666 
L 3928 4134 
L 2272 4134 
L 2272 0 
L 1638 0 
L 1638 4134 
L -19 4134 
L -19 4666 
z
" transform="scale(0.015625)"/>
        <path id="DejaVuSans-75" d="M 544 1381 
L 544 3500 
L 1119 3500 
L 1119 1403 
Q 1119 906 1312 657 
Q 1506 409 1894 409 
Q 2359 409 2629 706 
Q 2900 1003 2900 1516 
L 2900 3500 
L 3475 3500 
L 3475 0 
L 2900 0 
L 2900 538 
Q 2691 219 2414 64 
Q 2138 -91 1772 -91 
Q 1169 -91 856 284 
Q 544 659 544 1381 
z
M 1991 3584 
L 1991 3584 
z
" transform="scale(0.015625)"/>
        <path id="DejaVuSans-68" d="M 3513 2113 
L 3513 0 
L 2938 0 
L 2938 2094 
Q 2938 2591 2744 2837 
Q 2550 3084 2163 3084 
Q 1697 3084 1428 2787 
Q 1159 2491 1159 1978 
L 1159 0 
L 581 0 
L 581 4863 
L 1159 4863 
L 1159 2956 
Q 1366 3272 1645 3428 
Q 1925 3584 2291 3584 
Q 2894 3584 3203 3211 
Q 3513 2838 3513 2113 
z
" transform="scale(0.015625)"/>
       </defs>
       <use xlink:href="#DejaVuSans-54"/>
       <use xlink:href="#DejaVuSans-75" transform="translate(45.958984 0)"/>
       <use xlink:href="#DejaVuSans-72" transform="translate(109.337891 0)"/>
       <use xlink:href="#DejaVuSans-6e" transform="translate(148.701172 0)"/>
       <use xlink:href="#DejaVuSans-6f" transform="translate(212.080078 0)"/>
       <use xlink:href="#DejaVuSans-20" transform="translate(273.261719 0)"/>
       <use xlink:href="#DejaVuSans-6d" transform="translate(305.048828 0)"/>
       <use xlink:href="#DejaVuSans-61" transform="translate(402.460938 0)"/>
       <use xlink:href="#DejaVuSans-6e" transform="translate(463.740234 0)"/>
       <use xlink:href="#DejaVuSans-68" transform="translate(527.119141 0)"/>
       <use xlink:href="#DejaVuSans-61" transform="translate(590.498047 0)"/>
      </g>
     </g>
    </g>
    <g id="ytick_2">
     <g id="line2d_20">
      <g>
       <use xlink:href="#ma5752e0bcf" x="93.234615" y="349.862808" style="stroke: #000000; stroke-width: 0.8"/>
      </g>
     </g>
     <g id="text_12">
      <!-- Turno tarde -->
      <g transform="translate(29.245553 353.662027) scale(0.1 -0.1)">
       <use xlink:href="#DejaVuSans-54"/>
       <use xlink:href="#DejaVuSans-75" transform="translate(45.958984 0)"/>
       <use xlink:href="#DejaVuSans-72" transform="translate(109.337891 0)"/>
       <use xlink:href="#DejaVuSans-6e" transform="translate(148.701172 0)"/>
       <use xlink:href="#DejaVuSans-6f" transform="translate(212.080078 0)"/>
       <use xlink:href="#DejaVuSans-20" transform="translate(273.261719 0)"/>
       <use xlink:href="#DejaVuSans-74" transform="translate(305.048828 0)"/>
       <use xlink:href="#DejaVuSans-61" transform="translate(344.257812 0)"/>
       <use xlink:href="#DejaVuSans-72" transform="translate(405.537109 0)"/>
       <use xlink:href="#DejaVuSans-64" transform="translate(444.900391 0)"/>
       <use xlink:href="#DejaVuSans-65" transform="translate(508.376953 0)"/>
      </g>
     </g>
    </g>
    <g id="ytick_3">
     <g id="line2d_21">
      <g>
       <use xlink:href="#ma5752e0bcf" x="93.234615" y="314.942341" style="stroke: #000000; stroke-width: 0.8"/>
      </g>
     </g>
     <g id="text_13">
      <!-- Genotipo BR16 -->
      <g transform="translate(10.998677 318.741559) scale(0.1 -0.1)">
       <defs>
        <path id="DejaVuSans-47" d="M 3809 666 
L 3809 1919 
L 2778 1919 
L 2778 2438 
L 4434 2438 
L 4434 434 
Q 4069 175 3628 42 
Q 3188 -91 2688 -91 
Q 1594 -91 976 548 
Q 359 1188 359 2328 
Q 359 3472 976 4111 
Q 1594 4750 2688 4750 
Q 3144 4750 3555 4637 
Q 3966 4525 4313 4306 
L 4313 3634 
Q 3963 3931 3569 4081 
Q 3175 4231 2741 4231 
Q 1884 4231 1454 3753 
Q 1025 3275 1025 2328 
Q 1025 1384 1454 906 
Q 1884 428 2741 428 
Q 3075 428 3337 486 
Q 3600 544 3809 666 
z
" transform="scale(0.015625)"/>
        <path id="DejaVuSans-42" d="M 1259 2228 
L 1259 519 
L 2272 519 
Q 2781 519 3026 730 
Q 3272 941 3272 1375 
Q 3272 1813 3026 2020 
Q 2781 2228 2272 2228 
L 1259 2228 
z
M 1259 4147 
L 1259 2741 
L 2194 2741 
Q 2656 2741 2882 2914 
Q 3109 3088 3109 3444 
Q 3109 3797 2882 3972 
Q 2656 4147 2194 4147 
L 1259 4147 
z
M 628 4666 
L 2241 4666 
Q 2963 4666 3353 4366 
Q 3744 4066 3744 3513 
Q 3744 3084 3544 2831 
Q 3344 2578 2956 2516 
Q 3422 2416 3680 2098 
Q 3938 1781 3938 1306 
Q 3938 681 3513 340 
Q 3088 0 2303 0 
L 628 0 
L 628 4666 
z
" transform="scale(0.015625)"/>
        <path id="DejaVuSans-52" d="M 2841 2188 
Q 3044 2119 3236 1894 
Q 3428 1669 3622 1275 
L 4263 0 
L 3584 0 
L 2988 1197 
Q 2756 1666 2539 1819 
Q 2322 1972 1947 1972 
L 1259 1972 
L 1259 0 
L 628 0 
L 628 4666 
L 2053 4666 
Q 2853 4666 3247 4331 
Q 3641 3997 3641 3322 
Q 3641 2881 3436 2590 
Q 3231 2300 2841 2188 
z
M 1259 4147 
L 1259 2491 
L 2053 2491 
Q 2509 2491 2742 2702 
Q 2975 2913 2975 3322 
Q 2975 3731 2742 3939 
Q 2509 4147 2053 4147 
L 1259 4147 
z
" transform="scale(0.015625)"/>
        <path id="DejaVuSans-36" d="M 2113 2584 
Q 1688 2584 1439 2293 
Q 1191 2003 1191 1497 
Q 1191 994 1439 701 
Q 1688 409 2113 409 
Q 2538 409 2786 701 
Q 3034 994 3034 1497 
Q 3034 2003 2786 2293 
Q 2538 2584 2113 2584 
z
M 3366 4563 
L 3366 3988 
Q 3128 4100 2886 4159 
Q 2644 4219 2406 4219 
Q 1781 4219 1451 3797 
Q 1122 3375 1075 2522 
Q 1259 2794 1537 2939 
Q 1816 3084 2150 3084 
Q 2853 3084 3261 2657 
Q 3669 2231 3669 1497 
Q 3669 778 3244 343 
Q 2819 -91 2113 -91 
Q 1303 -91 875 529 
Q 447 1150 447 2328 
Q 447 3434 972 4092 
Q 1497 4750 2381 4750 
Q 2619 4750 2861 4703 
Q 3103 4656 3366 4563 
z
" transform="scale(0.015625)"/>
       </defs>
       <use xlink:href="#DejaVuSans-47"/>
       <use xlink:href="#DejaVuSans-65" transform="translate(77.490234 0)"/>
       <use xlink:href="#DejaVuSans-6e" transform="translate(139.013672 0)"/>
       <use xlink:href="#DejaVuSans-6f" transform="translate(202.392578 0)"/>
       <use xlink:href="#DejaVuSans-74" transform="translate(263.574219 0)"/>
       <use xlink:href="#DejaVuSans-69" transform="translate(302.783203 0)"/>
       <use xlink:href="#DejaVuSans-70" transform="translate(330.566406 0)"/>
       <use xlink:href="#DejaVuSans-6f" transform="translate(394.042969 0)"/>
       <use xlink:href="#DejaVuSans-20" transform="translate(455.224609 0)"/>
       <use xlink:href="#DejaVuSans-42" transform="translate(487.011719 0)"/>
       <use xlink:href="#DejaVuSans-52" transform="translate(555.615234 0)"/>
       <use xlink:href="#DejaVuSans-31" transform="translate(625.097656 0)"/>
       <use xlink:href="#DejaVuSans-36" transform="translate(688.720703 0)"/>
      </g>
     </g>
    </g>
    <g id="ytick_4">
     <g id="line2d_22">
      <g>
       <use xlink:href="#ma5752e0bcf" x="93.234615" y="280.021873" style="stroke: #000000; stroke-width: 0.8"/>
      </g>
     </g>
     <g id="text_14">
      <!-- Genotipo CD202 -->
      <g transform="translate(3.76274 283.821092) scale(0.1 -0.1)">
       <defs>
        <path id="DejaVuSans-44" d="M 1259 4147 
L 1259 519 
L 2022 519 
Q 2988 519 3436 956 
Q 3884 1394 3884 2338 
Q 3884 3275 3436 3711 
Q 2988 4147 2022 4147 
L 1259 4147 
z
M 628 4666 
L 1925 4666 
Q 3281 4666 3915 4102 
Q 4550 3538 4550 2338 
Q 4550 1131 3912 565 
Q 3275 0 1925 0 
L 628 0 
L 628 4666 
z
" transform="scale(0.015625)"/>
       </defs>
       <use xlink:href="#DejaVuSans-47"/>
       <use xlink:href="#DejaVuSans-65" transform="translate(77.490234 0)"/>
       <use xlink:href="#DejaVuSans-6e" transform="translate(139.013672 0)"/>
       <use xlink:href="#DejaVuSans-6f" transform="translate(202.392578 0)"/>
       <use xlink:href="#DejaVuSans-74" transform="translate(263.574219 0)"/>
       <use xlink:href="#DejaVuSans-69" transform="translate(302.783203 0)"/>
       <use xlink:href="#DejaVuSans-70" transform="translate(330.566406 0)"/>
       <use xlink:href="#DejaVuSans-6f" transform="translate(394.042969 0)"/>
       <use xlink:href="#DejaVuSans-20" transform="translate(455.224609 0)"/>
       <use xlink:href="#DejaVuSans-43" transform="translate(487.011719 0)"/>
       <use xlink:href="#DejaVuSans-44" transform="translate(556.835938 0)"/>
       <use xlink:href="#DejaVuSans-32" transform="translate(633.837891 0)"/>
       <use xlink:href="#DejaVuSans-30" transform="translate(697.460938 0)"/>
       <use xlink:href="#DejaVuSans-32" transform="translate(761.083984 0)"/>
      </g>
     </g>
    </g>
    <g id="ytick_5">
     <g id="line2d_23">
      <g>
       <use xlink:href="#ma5752e0bcf" x="93.234615" y="245.101405" style="stroke: #000000; stroke-width: 0.8"/>
      </g>
     </g>
     <g id="text_15">
      <!-- Genotipo EMB48 -->
      <g transform="translate(3.00024 248.900624) scale(0.1 -0.1)">
       <defs>
        <path id="DejaVuSans-45" d="M 628 4666 
L 3578 4666 
L 3578 4134 
L 1259 4134 
L 1259 2753 
L 3481 2753 
L 3481 2222 
L 1259 2222 
L 1259 531 
L 3634 531 
L 3634 0 
L 628 0 
L 628 4666 
z
" transform="scale(0.015625)"/>
        <path id="DejaVuSans-4d" d="M 628 4666 
L 1569 4666 
L 2759 1491 
L 3956 4666 
L 4897 4666 
L 4897 0 
L 4281 0 
L 4281 4097 
L 3078 897 
L 2444 897 
L 1241 4097 
L 1241 0 
L 628 0 
L 628 4666 
z
" transform="scale(0.015625)"/>
        <path id="DejaVuSans-34" d="M 2419 4116 
L 825 1625 
L 2419 1625 
L 2419 4116 
z
M 2253 4666 
L 3047 4666 
L 3047 1625 
L 3713 1625 
L 3713 1100 
L 3047 1100 
L 3047 0 
L 2419 0 
L 2419 1100 
L 313 1100 
L 313 1709 
L 2253 4666 
z
" transform="scale(0.015625)"/>
        <path id="DejaVuSans-38" d="M 2034 2216 
Q 1584 2216 1326 1975 
Q 1069 1734 1069 1313 
Q 1069 891 1326 650 
Q 1584 409 2034 409 
Q 2484 409 2743 651 
Q 3003 894 3003 1313 
Q 3003 1734 2745 1975 
Q 2488 2216 2034 2216 
z
M 1403 2484 
Q 997 2584 770 2862 
Q 544 3141 544 3541 
Q 544 4100 942 4425 
Q 1341 4750 2034 4750 
Q 2731 4750 3128 4425 
Q 3525 4100 3525 3541 
Q 3525 3141 3298 2862 
Q 3072 2584 2669 2484 
Q 3125 2378 3379 2068 
Q 3634 1759 3634 1313 
Q 3634 634 3220 271 
Q 2806 -91 2034 -91 
Q 1263 -91 848 271 
Q 434 634 434 1313 
Q 434 1759 690 2068 
Q 947 2378 1403 2484 
z
M 1172 3481 
Q 1172 3119 1398 2916 
Q 1625 2713 2034 2713 
Q 2441 2713 2670 2916 
Q 2900 3119 2900 3481 
Q 2900 3844 2670 4047 
Q 2441 4250 2034 4250 
Q 1625 4250 1398 4047 
Q 1172 3844 1172 3481 
z
" transform="scale(0.015625)"/>
       </defs>
       <use xlink:href="#DejaVuSans-47"/>
       <use xlink:href="#DejaVuSans-65" transform="translate(77.490234 0)"/>
       <use xlink:href="#DejaVuSans-6e" transform="translate(139.013672 0)"/>
       <use xlink:href="#DejaVuSans-6f" transform="translate(202.392578 0)"/>
       <use xlink:href="#DejaVuSans-74" transform="translate(263.574219 0)"/>
       <use xlink:href="#DejaVuSans-69" transform="translate(302.783203 0)"/>
       <use xlink:href="#DejaVuSans-70" transform="translate(330.566406 0)"/>
       <use xlink:href="#DejaVuSans-6f" transform="translate(394.042969 0)"/>
       <use xlink:href="#DejaVuSans-20" transform="translate(455.224609 0)"/>
       <use xlink:href="#DejaVuSans-45" transform="translate(487.011719 0)"/>
       <use xlink:href="#DejaVuSans-4d" transform="translate(550.195312 0)"/>
       <use xlink:href="#DejaVuSans-42" transform="translate(636.474609 0)"/>
       <use xlink:href="#DejaVuSans-34" transform="translate(705.078125 0)"/>
       <use xlink:href="#DejaVuSans-38" transform="translate(768.701172 0)"/>
      </g>
     </g>
    </g>
    <g id="ytick_6">
     <g id="line2d_24">
      <g>
       <use xlink:href="#ma5752e0bcf" x="93.234615" y="210.180938" style="stroke: #000000; stroke-width: 0.8"/>
      </g>
     </g>
     <g id="text_16">
      <!-- manha / BR16 -->
      <g transform="translate(15.303365 213.980156) scale(0.1 -0.1)">
       <defs>
        <path id="DejaVuSans-2f" d="M 1625 4666 
L 2156 4666 
L 531 -594 
L 0 -594 
L 1625 4666 
z
" transform="scale(0.015625)"/>
       </defs>
       <use xlink:href="#DejaVuSans-6d"/>
       <use xlink:href="#DejaVuSans-61" transform="translate(97.412109 0)"/>
       <use xlink:href="#DejaVuSans-6e" transform="translate(158.691406 0)"/>
       <use xlink:href="#DejaVuSans-68" transform="translate(222.070312 0)"/>
       <use xlink:href="#DejaVuSans-61" transform="translate(285.449219 0)"/>
       <use xlink:href="#DejaVuSans-20" transform="translate(346.728516 0)"/>
       <use xlink:href="#DejaVuSans-2f" transform="translate(378.515625 0)"/>
       <use xlink:href="#DejaVuSans-20" transform="translate(412.207031 0)"/>
       <use xlink:href="#DejaVuSans-42" transform="translate(443.994141 0)"/>
       <use xlink:href="#DejaVuSans-52" transform="translate(512.597656 0)"/>
       <use xlink:href="#DejaVuSans-31" transform="translate(582.080078 0)"/>
       <use xlink:href="#DejaVuSans-36" transform="translate(645.703125 0)"/>
      </g>
     </g>
    </g>
    <g id="ytick_7">
     <g id="line2d_25">
      <g>
       <use xlink:href="#ma5752e0bcf" x="93.234615" y="175.26047" style="stroke: #000000; stroke-width: 0.8"/>
      </g>
     </g>
     <g id="text_17">
      <!-- manha / CD202 -->
      <g transform="translate(8.067427 179.059689) scale(0.1 -0.1)">
       <use xlink:href="#DejaVuSans-6d"/>
       <use xlink:href="#DejaVuSans-61" transform="translate(97.412109 0)"/>
       <use xlink:href="#DejaVuSans-6e" transform="translate(158.691406 0)"/>
       <use xlink:href="#DejaVuSans-68" transform="translate(222.070312 0)"/>
       <use xlink:href="#DejaVuSans-61" transform="translate(285.449219 0)"/>
       <use xlink:href="#DejaVuSans-20" transform="translate(346.728516 0)"/>
       <use xlink:href="#DejaVuSans-2f" transform="translate(378.515625 0)"/>
       <use xlink:href="#DejaVuSans-20" transform="translate(412.207031 0)"/>
       <use xlink:href="#DejaVuSans-43" transform="translate(443.994141 0)"/>
       <use xlink:href="#DejaVuSans-44" transform="translate(513.818359 0)"/>
       <use xlink:href="#DejaVuSans-32" transform="translate(590.820312 0)"/>
       <use xlink:href="#DejaVuSans-30" transform="translate(654.443359 0)"/>
       <use xlink:href="#DejaVuSans-32" transform="translate(718.066406 0)"/>
      </g>
     </g>
    </g>
    <g id="ytick_8">
     <g id="line2d_26">
      <g>
       <use xlink:href="#ma5752e0bcf" x="93.234615" y="140.340002" style="stroke: #000000; stroke-width: 0.8"/>
      </g>
     </g>
     <g id="text_18">
      <!-- manha / EMB48 -->
      <g transform="translate(7.304928 144.139221) scale(0.1 -0.1)">
       <use xlink:href="#DejaVuSans-6d"/>
       <use xlink:href="#DejaVuSans-61" transform="translate(97.412109 0)"/>
       <use xlink:href="#DejaVuSans-6e" transform="translate(158.691406 0)"/>
       <use xlink:href="#DejaVuSans-68" transform="translate(222.070312 0)"/>
       <use xlink:href="#DejaVuSans-61" transform="translate(285.449219 0)"/>
       <use xlink:href="#DejaVuSans-20" transform="translate(346.728516 0)"/>
       <use xlink:href="#DejaVuSans-2f" transform="translate(378.515625 0)"/>
       <use xlink:href="#DejaVuSans-20" transform="translate(412.207031 0)"/>
       <use xlink:href="#DejaVuSans-45" transform="translate(443.994141 0)"/>
       <use xlink:href="#DejaVuSans-4d" transform="translate(507.177734 0)"/>
       <use xlink:href="#DejaVuSans-42" transform="translate(593.457031 0)"/>
       <use xlink:href="#DejaVuSans-34" transform="translate(662.060547 0)"/>
       <use xlink:href="#DejaVuSans-38" transform="translate(725.683594 0)"/>
      </g>
     </g>
    </g>
    <g id="ytick_9">
     <g id="line2d_27">
      <g>
       <use xlink:href="#ma5752e0bcf" x="93.234615" y="105.419534" style="stroke: #000000; stroke-width: 0.8"/>
      </g>
     </g>
     <g id="text_19">
      <!-- tarde / BR16 -->
      <g transform="translate(23.489303 109.218753) scale(0.1 -0.1)">
       <use xlink:href="#DejaVuSans-74"/>
       <use xlink:href="#DejaVuSans-61" transform="translate(39.208984 0)"/>
       <use xlink:href="#DejaVuSans-72" transform="translate(100.488281 0)"/>
       <use xlink:href="#DejaVuSans-64" transform="translate(139.851562 0)"/>
       <use xlink:href="#DejaVuSans-65" transform="translate(203.328125 0)"/>
       <use xlink:href="#DejaVuSans-20" transform="translate(264.851562 0)"/>
       <use xlink:href="#DejaVuSans-2f" transform="translate(296.638672 0)"/>
       <use xlink:href="#DejaVuSans-20" transform="translate(330.330078 0)"/>
       <use xlink:href="#DejaVuSans-42" transform="translate(362.117188 0)"/>
       <use xlink:href="#DejaVuSans-52" transform="translate(430.720703 0)"/>
       <use xlink:href="#DejaVuSans-31" transform="translate(500.203125 0)"/>
       <use xlink:href="#DejaVuSans-36" transform="translate(563.826172 0)"/>
      </g>
     </g>
    </g>
    <g id="ytick_10">
     <g id="line2d_28">
      <g>
       <use xlink:href="#ma5752e0bcf" x="93.234615" y="70.499067" style="stroke: #000000; stroke-width: 0.8"/>
      </g>
     </g>
     <g id="text_20">
      <!-- tarde / CD202 -->
      <g transform="translate(16.253365 74.298285) scale(0.1 -0.1)">
       <use xlink:href="#DejaVuSans-74"/>
       <use xlink:href="#DejaVuSans-61" transform="translate(39.208984 0)"/>
       <use xlink:href="#DejaVuSans-72" transform="translate(100.488281 0)"/>
       <use xlink:href="#DejaVuSans-64" transform="translate(139.851562 0)"/>
       <use xlink:href="#DejaVuSans-65" transform="translate(203.328125 0)"/>
       <use xlink:href="#DejaVuSans-20" transform="translate(264.851562 0)"/>
       <use xlink:href="#DejaVuSans-2f" transform="translate(296.638672 0)"/>
       <use xlink:href="#DejaVuSans-20" transform="translate(330.330078 0)"/>
       <use xlink:href="#DejaVuSans-43" transform="translate(362.117188 0)"/>
       <use xlink:href="#DejaVuSans-44" transform="translate(431.941406 0)"/>
       <use xlink:href="#DejaVuSans-32" transform="translate(508.943359 0)"/>
       <use xlink:href="#DejaVuSans-30" transform="translate(572.566406 0)"/>
       <use xlink:href="#DejaVuSans-32" transform="translate(636.189453 0)"/>
      </g>
     </g>
    </g>
    <g id="ytick_11">
     <g id="line2d_29">
      <g>
       <use xlink:href="#ma5752e0bcf" x="93.234615" y="35.578599" style="stroke: #000000; stroke-width: 0.8"/>
      </g>
     </g>
     <g id="text_21">
      <!-- tarde / EMB48 -->
      <g transform="translate(15.490865 39.377818) scale(0.1 -0.1)">
       <use xlink:href="#DejaVuSans-74"/>
       <use xlink:href="#DejaVuSans-61" transform="translate(39.208984 0)"/>
       <use xlink:href="#DejaVuSans-72" transform="translate(100.488281 0)"/>
       <use xlink:href="#DejaVuSans-64" transform="translate(139.851562 0)"/>
       <use xlink:href="#DejaVuSans-65" transform="translate(203.328125 0)"/>
       <use xlink:href="#DejaVuSans-20" transform="translate(264.851562 0)"/>
       <use xlink:href="#DejaVuSans-2f" transform="translate(296.638672 0)"/>
       <use xlink:href="#DejaVuSans-20" transform="translate(330.330078 0)"/>
       <use xlink:href="#DejaVuSans-45" transform="translate(362.117188 0)"/>
       <use xlink:href="#DejaVuSans-4d" transform="translate(425.300781 0)"/>
       <use xlink:href="#DejaVuSans-42" transform="translate(511.580078 0)"/>
       <use xlink:href="#DejaVuSans-34" transform="translate(580.183594 0)"/>
       <use xlink:href="#DejaVuSans-38" transform="translate(643.806641 0)"/>
      </g>
     </g>
    </g>
   </g>
   <g id="LineCollection_1">
    <path d="M 93.234615 384.783276 
L 106.800355 384.783276 
" clip-path="url(#pe4c6d07c9d)" style="fill: none; stroke: #d1d5db; stroke-width: 1.2"/>
   </g>
   <g id="LineCollection_2">
    <path d="M 93.234615 349.862808 
L 716.93567 349.862808 
" clip-path="url(#pe4c6d07c9d)" style="fill: none; stroke: #d1d5db; stroke-width: 1.2"/>
   </g>
   <g id="LineCollection_3">
    <path d="M 93.234615 314.942341 
L 713.382738 314.942341 
" clip-path="url(#pe4c6d07c9d)" style="fill: none; stroke: #d1d5db; stroke-width: 1.2"/>
   </g>
   <g id="LineCollection_4">
    <path d="M 93.234615 280.021873 
L 716.612677 280.021873 
" clip-path="url(#pe4c6d07c9d)" style="fill: none; stroke: #d1d5db; stroke-width: 1.2"/>
   </g>
   <g id="LineCollection_5">
    <path d="M 93.234615 245.101405 
L 516.679506 245.101405 
" clip-path="url(#pe4c6d07c9d)" style="fill: none; stroke: #d1d5db; stroke-width: 1.2"/>
   </g>
   <g id="LineCollection_6">
    <path d="M 93.234615 210.180938 
L 569.973485 210.180938 
" clip-path="url(#pe4c6d07c9d)" style="fill: none; stroke: #d1d5db; stroke-width: 1.2"/>
   </g>
   <g id="LineCollection_7">
    <path d="M 93.234615 175.26047 
L 674.300487 175.26047 
" clip-path="url(#pe4c6d07c9d)" style="fill: none; stroke: #d1d5db; stroke-width: 1.2"/>
   </g>
   <g id="LineCollection_8">
    <path d="M 93.234615 140.340002 
L 103.893411 140.340002 
" clip-path="url(#pe4c6d07c9d)" style="fill: none; stroke: #d1d5db; stroke-width: 1.2"/>
   </g>
   <g id="LineCollection_9">
    <path d="M 93.234615 105.419534 
L 518.940462 105.419534 
" clip-path="url(#pe4c6d07c9d)" style="fill: none; stroke: #d1d5db; stroke-width: 1.2"/>
   </g>
   <g id="LineCollection_10">
    <path d="M 93.234615 70.499067 
L 716.93567 70.499067 
" clip-path="url(#pe4c6d07c9d)" style="fill: none; stroke: #d1d5db; stroke-width: 1.2"/>
   </g>
   <g id="LineCollection_11">
    <path d="M 93.234615 35.578599 
L 295.105749 35.578599 
" clip-path="url(#pe4c6d07c9d)" style="fill: none; stroke: #d1d5db; stroke-width: 1.2"/>
   </g>
   <g id="patch_3">
    <path d="M 93.234615 402.24351 
L 93.234615 18.118365 
" style="fill: none; stroke: #000000; stroke-width: 0.8; stroke-linejoin: miter; stroke-linecap: square"/>
   </g>
   <g id="patch_4">
    <path d="M 787.671316 402.24351 
L 787.671316 18.118365 
" style="fill: none; stroke: #000000; stroke-width: 0.8; stroke-linejoin: miter; stroke-linecap: square"/>
   </g>
   <g id="patch_5">
    <path d="M 93.234615 402.24351 
L 787.671316 402.24351 
" style="fill: none; stroke: #000000; stroke-width: 0.8; stroke-linejoin: miter; stroke-linecap: square"/>
   </g>
   <g id="patch_6">
    <path d="M 93.234615 18.118365 
L 787.671316 18.118365 
" style="fill: none; stroke: #000000; stroke-width: 0.8; stroke-linejoin: miter; stroke-linecap: square"/>
   </g>
   <g id="text_22">
    <!-- 392 nm -->
    <g style="fill: #111827" transform="translate(114.800355 382.379401) scale(0.08 -0.08)">
     <defs>
      <path id="DejaVuSans-33" d="M 2597 2516 
Q 3050 2419 3304 2112 
Q 3559 1806 3559 1356 
Q 3559 666 3084 287 
Q 2609 -91 1734 -91 
Q 1441 -91 1130 -33 
Q 819 25 488 141 
L 488 750 
Q 750 597 1062 519 
Q 1375 441 1716 441 
Q 2309 441 2620 675 
Q 2931 909 2931 1356 
Q 2931 1769 2642 2001 
Q 2353 2234 1838 2234 
L 1294 2234 
L 1294 2753 
L 1863 2753 
Q 2328 2753 2575 2939 
Q 2822 3125 2822 3475 
Q 2822 3834 2567 4026 
Q 2313 4219 1838 4219 
Q 1578 4219 1281 4162 
Q 984 4106 628 3988 
L 628 4550 
Q 988 4650 1302 4700 
Q 1616 4750 1894 4750 
Q 2613 4750 3031 4423 
Q 3450 4097 3450 3541 
Q 3450 3153 3228 2886 
Q 3006 2619 2597 2516 
z
" transform="scale(0.015625)"/>
      <path id="DejaVuSans-39" d="M 703 97 
L 703 672 
Q 941 559 1184 500 
Q 1428 441 1663 441 
Q 2288 441 2617 861 
Q 2947 1281 2994 2138 
Q 2813 1869 2534 1725 
Q 2256 1581 1919 1581 
Q 1219 1581 811 2004 
Q 403 2428 403 3163 
Q 403 3881 828 4315 
Q 1253 4750 1959 4750 
Q 2769 4750 3195 4129 
Q 3622 3509 3622 2328 
Q 3622 1225 3098 567 
Q 2575 -91 1691 -91 
Q 1453 -91 1209 -44 
Q 966 3 703 97 
z
M 1959 2075 
Q 2384 2075 2632 2365 
Q 2881 2656 2881 3163 
Q 2881 3666 2632 3958 
Q 2384 4250 1959 4250 
Q 1534 4250 1286 3958 
Q 1038 3666 1038 3163 
Q 1038 2656 1286 2365 
Q 1534 2075 1959 2075 
z
" transform="scale(0.015625)"/>
     </defs>
     <use xlink:href="#DejaVuSans-33"/>
     <use xlink:href="#DejaVuSans-39" transform="translate(63.623047 0)"/>
     <use xlink:href="#DejaVuSans-32" transform="translate(127.246094 0)"/>
     <use xlink:href="#DejaVuSans-20" transform="translate(190.869141 0)"/>
     <use xlink:href="#DejaVuSans-6e" transform="translate(222.65625 0)"/>
     <use xlink:href="#DejaVuSans-6d" transform="translate(286.035156 0)"/>
    </g>
    <!-- VIP=1.52 | coef=-0.0155 -->
    <g style="fill: #111827" transform="translate(114.800355 391.379651) scale(0.08 -0.08)">
     <defs>
      <path id="DejaVuSans-56" d="M 1831 0 
L 50 4666 
L 709 4666 
L 2188 738 
L 3669 4666 
L 4325 4666 
L 2547 0 
L 1831 0 
z
" transform="scale(0.015625)"/>
      <path id="DejaVuSans-49" d="M 628 4666 
L 1259 4666 
L 1259 0 
L 628 0 
L 628 4666 
z
" transform="scale(0.015625)"/>
      <path id="DejaVuSans-50" d="M 1259 4147 
L 1259 2394 
L 2053 2394 
Q 2494 2394 2734 2622 
Q 2975 2850 2975 3272 
Q 2975 3691 2734 3919 
Q 2494 4147 2053 4147 
L 1259 4147 
z
M 628 4666 
L 2053 4666 
Q 2838 4666 3239 4311 
Q 3641 3956 3641 3272 
Q 3641 2581 3239 2228 
Q 2838 1875 2053 1875 
L 1259 1875 
L 1259 0 
L 628 0 
L 628 4666 
z
" transform="scale(0.015625)"/>
      <path id="DejaVuSans-3d" d="M 678 2906 
L 4684 2906 
L 4684 2381 
L 678 2381 
L 678 2906 
z
M 678 1631 
L 4684 1631 
L 4684 1100 
L 678 1100 
L 678 1631 
z
" transform="scale(0.015625)"/>
      <path id="DejaVuSans-2e" d="M 684 794 
L 1344 794 
L 1344 0 
L 684 0 
L 684 794 
z
" transform="scale(0.015625)"/>
      <path id="DejaVuSans-7c" d="M 1344 4891 
L 1344 -1509 
L 813 -1509 
L 813 4891 
L 1344 4891 
z
" transform="scale(0.015625)"/>
      <path id="DejaVuSans-63" d="M 3122 3366 
L 3122 2828 
Q 2878 2963 2633 3030 
Q 2388 3097 2138 3097 
Q 1578 3097 1268 2742 
Q 959 2388 959 1747 
Q 959 1106 1268 751 
Q 1578 397 2138 397 
Q 2388 397 2633 464 
Q 2878 531 3122 666 
L 3122 134 
Q 2881 22 2623 -34 
Q 2366 -91 2075 -91 
Q 1284 -91 818 406 
Q 353 903 353 1747 
Q 353 2603 823 3093 
Q 1294 3584 2113 3584 
Q 2378 3584 2631 3529 
Q 2884 3475 3122 3366 
z
" transform="scale(0.015625)"/>
      <path id="DejaVuSans-66" d="M 2375 4863 
L 2375 4384 
L 1825 4384 
Q 1516 4384 1395 4259 
Q 1275 4134 1275 3809 
L 1275 3500 
L 2222 3500 
L 2222 3053 
L 1275 3053 
L 1275 0 
L 697 0 
L 697 3053 
L 147 3053 
L 147 3500 
L 697 3500 
L 697 3744 
Q 697 4328 969 4595 
Q 1241 4863 1831 4863 
L 2375 4863 
z
" transform="scale(0.015625)"/>
      <path id="DejaVuSans-2d" d="M 313 2009 
L 1997 2009 
L 1997 1497 
L 313 1497 
L 313 2009 
z
" transform="scale(0.015625)"/>
     </defs>
     <use xlink:href="#DejaVuSans-56"/>
     <use xlink:href="#DejaVuSans-49" transform="translate(68.408203 0)"/>
     <use xlink:href="#DejaVuSans-50" transform="translate(97.900391 0)"/>
     <use xlink:href="#DejaVuSans-3d" transform="translate(158.203125 0)"/>
     <use xlink:href="#DejaVuSans-31" transform="translate(241.992188 0)"/>
     <use xlink:href="#DejaVuSans-2e" transform="translate(305.615234 0)"/>
     <use xlink:href="#DejaVuSans-35" transform="translate(337.402344 0)"/>
     <use xlink:href="#DejaVuSans-32" transform="translate(401.025391 0)"/>
     <use xlink:href="#DejaVuSans-20" transform="translate(464.648438 0)"/>
     <use xlink:href="#DejaVuSans-7c" transform="translate(496.435547 0)"/>
     <use xlink:href="#DejaVuSans-20" transform="translate(530.126953 0)"/>
     <use xlink:href="#DejaVuSans-63" transform="translate(561.914062 0)"/>
     <use xlink:href="#DejaVuSans-6f" transform="translate(616.894531 0)"/>
     <use xlink:href="#DejaVuSans-65" transform="translate(678.076172 0)"/>
     <use xlink:href="#DejaVuSans-66" transform="translate(739.599609 0)"/>
     <use xlink:href="#DejaVuSans-3d" transform="translate(774.804688 0)"/>
     <use xlink:href="#DejaVuSans-2d" transform="translate(858.59375 0)"/>
     <use xlink:href="#DejaVuSans-30" transform="translate(894.677734 0)"/>
     <use xlink:href="#DejaVuSans-2e" transform="translate(958.300781 0)"/>
     <use xlink:href="#DejaVuSans-30" transform="translate(990.087891 0)"/>
     <use xlink:href="#DejaVuSans-31" transform="translate(1053.710938 0)"/>
     <use xlink:href="#DejaVuSans-35" transform="translate(1117.333984 0)"/>
     <use xlink:href="#DejaVuSans-35" transform="translate(1180.957031 0)"/>
    </g>
   </g>
   <g id="text_23">
    <!-- 2281 nm -->
    <g style="fill: #111827" transform="translate(724.93567 347.458933) scale(0.08 -0.08)">
     <use xlink:href="#DejaVuSans-32"/>
     <use xlink:href="#DejaVuSans-32" transform="translate(63.623047 0)"/>
     <use xlink:href="#DejaVuSans-38" transform="translate(127.246094 0)"/>
     <use xlink:href="#DejaVuSans-31" transform="translate(190.869141 0)"/>
     <use xlink:href="#DejaVuSans-20" transform="translate(254.492188 0)"/>
     <use xlink:href="#DejaVuSans-6e" transform="translate(286.279297 0)"/>
     <use xlink:href="#DejaVuSans-6d" transform="translate(349.658203 0)"/>
    </g>
    <!-- VIP=1.81 | coef=-0.0140 -->
    <g style="fill: #111827" transform="translate(724.93567 356.459183) scale(0.08 -0.08)">
     <use xlink:href="#DejaVuSans-56"/>
     <use xlink:href="#DejaVuSans-49" transform="translate(68.408203 0)"/>
     <use xlink:href="#DejaVuSans-50" transform="translate(97.900391 0)"/>
     <use xlink:href="#DejaVuSans-3d" transform="translate(158.203125 0)"/>
     <use xlink:href="#DejaVuSans-31" transform="translate(241.992188 0)"/>
     <use xlink:href="#DejaVuSans-2e" transform="translate(305.615234 0)"/>
     <use xlink:href="#DejaVuSans-38" transform="translate(337.402344 0)"/>
     <use xlink:href="#DejaVuSans-31" transform="translate(401.025391 0)"/>
     <use xlink:href="#DejaVuSans-20" transform="translate(464.648438 0)"/>
     <use xlink:href="#DejaVuSans-7c" transform="translate(496.435547 0)"/>
     <use xlink:href="#DejaVuSans-20" transform="translate(530.126953 0)"/>
     <use xlink:href="#DejaVuSans-63" transform="translate(561.914062 0)"/>
     <use xlink:href="#DejaVuSans-6f" transform="translate(616.894531 0)"/>
     <use xlink:href="#DejaVuSans-65" transform="translate(678.076172 0)"/>
     <use xlink:href="#DejaVuSans-66" transform="translate(739.599609 0)"/>
     <use xlink:href="#DejaVuSans-3d" transform="translate(774.804688 0)"/>
     <use xlink:href="#DejaVuSans-2d" transform="translate(858.59375 0)"/>
     <use xlink:href="#DejaVuSans-30" transform="translate(894.677734 0)"/>
     <use xlink:href="#DejaVuSans-2e" transform="translate(958.300781 0)"/>
     <use xlink:href="#DejaVuSans-30" transform="translate(990.087891 0)"/>
     <use xlink:href="#DejaVuSans-31" transform="translate(1053.710938 0)"/>
     <use xlink:href="#DejaVuSans-34" transform="translate(1117.333984 0)"/>
     <use xlink:href="#DejaVuSans-30" transform="translate(1180.957031 0)"/>
    </g>
   </g>
   <g id="text_24">
    <!-- 2270 nm -->
    <g style="fill: #111827" transform="translate(721.382738 312.538466) scale(0.08 -0.08)">
     <use xlink:href="#DejaVuSans-32"/>
     <use xlink:href="#DejaVuSans-32" transform="translate(63.623047 0)"/>
     <use xlink:href="#DejaVuSans-37" transform="translate(127.246094 0)"/>
     <use xlink:href="#DejaVuSans-30" transform="translate(190.869141 0)"/>
     <use xlink:href="#DejaVuSans-20" transform="translate(254.492188 0)"/>
     <use xlink:href="#DejaVuSans-6e" transform="translate(286.279297 0)"/>
     <use xlink:href="#DejaVuSans-6d" transform="translate(349.658203 0)"/>
    </g>
    <!-- VIP=1.73 | coef=-0.0170 -->
    <g style="fill: #111827" transform="translate(721.382738 321.538716) scale(0.08 -0.08)">
     <use xlink:href="#DejaVuSans-56"/>
     <use xlink:href="#DejaVuSans-49" transform="translate(68.408203 0)"/>
     <use xlink:href="#DejaVuSans-50" transform="translate(97.900391 0)"/>
     <use xlink:href="#DejaVuSans-3d" transform="translate(158.203125 0)"/>
     <use xlink:href="#DejaVuSans-31" transform="translate(241.992188 0)"/>
     <use xlink:href="#DejaVuSans-2e" transform="translate(305.615234 0)"/>
     <use xlink:href="#DejaVuSans-37" transform="translate(337.402344 0)"/>
     <use xlink:href="#DejaVuSans-33" transform="translate(401.025391 0)"/>
     <use xlink:href="#DejaVuSans-20" transform="translate(464.648438 0)"/>
     <use xlink:href="#DejaVuSans-7c" transform="translate(496.435547 0)"/>
     <use xlink:href="#DejaVuSans-20" transform="translate(530.126953 0)"/>
     <use xlink:href="#DejaVuSans-63" transform="translate(561.914062 0)"/>
     <use xlink:href="#DejaVuSans-6f" transform="translate(616.894531 0)"/>
     <use xlink:href="#DejaVuSans-65" transform="translate(678.076172 0)"/>
     <use xlink:href="#DejaVuSans-66" transform="translate(739.599609 0)"/>
     <use xlink:href="#DejaVuSans-3d" transform="translate(774.804688 0)"/>
     <use xlink:href="#DejaVuSans-2d" transform="translate(858.59375 0)"/>
     <use xlink:href="#DejaVuSans-30" transform="translate(894.677734 0)"/>
     <use xlink:href="#DejaVuSans-2e" transform="translate(958.300781 0)"/>
     <use xlink:href="#DejaVuSans-30" transform="translate(990.087891 0)"/>
     <use xlink:href="#DejaVuSans-31" transform="translate(1053.710938 0)"/>
     <use xlink:href="#DejaVuSans-37" transform="translate(1117.333984 0)"/>
     <use xlink:href="#DejaVuSans-30" transform="translate(1180.957031 0)"/>
    </g>
   </g>
   <g id="text_25">
    <!-- 2280 nm -->
    <g style="fill: #111827" transform="translate(724.612677 277.617998) scale(0.08 -0.08)">
     <use xlink:href="#DejaVuSans-32"/>
     <use xlink:href="#DejaVuSans-32" transform="translate(63.623047 0)"/>
     <use xlink:href="#DejaVuSans-38" transform="translate(127.246094 0)"/>
     <use xlink:href="#DejaVuSans-30" transform="translate(190.869141 0)"/>
     <use xlink:href="#DejaVuSans-20" transform="translate(254.492188 0)"/>
     <use xlink:href="#DejaVuSans-6e" transform="translate(286.279297 0)"/>
     <use xlink:href="#DejaVuSans-6d" transform="translate(349.658203 0)"/>
    </g>
    <!-- VIP=1.64 | coef=-0.0128 -->
    <g style="fill: #111827" transform="translate(724.612677 286.618248) scale(0.08 -0.08)">
     <use xlink:href="#DejaVuSans-56"/>
     <use xlink:href="#DejaVuSans-49" transform="translate(68.408203 0)"/>
     <use xlink:href="#DejaVuSans-50" transform="translate(97.900391 0)"/>
     <use xlink:href="#DejaVuSans-3d" transform="translate(158.203125 0)"/>
     <use xlink:href="#DejaVuSans-31" transform="translate(241.992188 0)"/>
     <use xlink:href="#DejaVuSans-2e" transform="translate(305.615234 0)"/>
     <use xlink:href="#DejaVuSans-36" transform="translate(337.402344 0)"/>
     <use xlink:href="#DejaVuSans-34" transform="translate(401.025391 0)"/>
     <use xlink:href="#DejaVuSans-20" transform="translate(464.648438 0)"/>
     <use xlink:href="#DejaVuSans-7c" transform="translate(496.435547 0)"/>
     <use xlink:href="#DejaVuSans-20" transform="translate(530.126953 0)"/>
     <use xlink:href="#DejaVuSans-63" transform="translate(561.914062 0)"/>
     <use xlink:href="#DejaVuSans-6f" transform="translate(616.894531 0)"/>
     <use xlink:href="#DejaVuSans-65" transform="translate(678.076172 0)"/>
     <use xlink:href="#DejaVuSans-66" transform="translate(739.599609 0)"/>
     <use xlink:href="#DejaVuSans-3d" transform="translate(774.804688 0)"/>
     <use xlink:href="#DejaVuSans-2d" transform="translate(858.59375 0)"/>
     <use xlink:href="#DejaVuSans-30" transform="translate(894.677734 0)"/>
     <use xlink:href="#DejaVuSans-2e" transform="translate(958.300781 0)"/>
     <use xlink:href="#DejaVuSans-30" transform="translate(990.087891 0)"/>
     <use xlink:href="#DejaVuSans-31" transform="translate(1053.710938 0)"/>
     <use xlink:href="#DejaVuSans-32" transform="translate(1117.333984 0)"/>
     <use xlink:href="#DejaVuSans-38" transform="translate(1180.957031 0)"/>
    </g>
   </g>
   <g id="text_26">
    <!-- 1661 nm -->
    <g style="fill: #111827" transform="translate(524.679506 242.69753) scale(0.08 -0.08)">
     <use xlink:href="#DejaVuSans-31"/>
     <use xlink:href="#DejaVuSans-36" transform="translate(63.623047 0)"/>
     <use xlink:href="#DejaVuSans-36" transform="translate(127.246094 0)"/>
     <use xlink:href="#DejaVuSans-31" transform="translate(190.869141 0)"/>
     <use xlink:href="#DejaVuSans-20" transform="translate(254.492188 0)"/>
     <use xlink:href="#DejaVuSans-6e" transform="translate(286.279297 0)"/>
     <use xlink:href="#DejaVuSans-6d" transform="translate(349.658203 0)"/>
    </g>
    <!-- VIP=1.58 | coef=0.0152 -->
    <g style="fill: #111827" transform="translate(524.679506 251.69778) scale(0.08 -0.08)">
     <use xlink:href="#DejaVuSans-56"/>
     <use xlink:href="#DejaVuSans-49" transform="translate(68.408203 0)"/>
     <use xlink:href="#DejaVuSans-50" transform="translate(97.900391 0)"/>
     <use xlink:href="#DejaVuSans-3d" transform="translate(158.203125 0)"/>
     <use xlink:href="#DejaVuSans-31" transform="translate(241.992188 0)"/>
     <use xlink:href="#DejaVuSans-2e" transform="translate(305.615234 0)"/>
     <use xlink:href="#DejaVuSans-35" transform="translate(337.402344 0)"/>
     <use xlink:href="#DejaVuSans-38" transform="translate(401.025391 0)"/>
     <use xlink:href="#DejaVuSans-20" transform="translate(464.648438 0)"/>
     <use xlink:href="#DejaVuSans-7c" transform="translate(496.435547 0)"/>
     <use xlink:href="#DejaVuSans-20" transform="translate(530.126953 0)"/>
     <use xlink:href="#DejaVuSans-63" transform="translate(561.914062 0)"/>
     <use xlink:href="#DejaVuSans-6f" transform="translate(616.894531 0)"/>
     <use xlink:href="#DejaVuSans-65" transform="translate(678.076172 0)"/>
     <use xlink:href="#DejaVuSans-66" transform="translate(739.599609 0)"/>
     <use xlink:href="#DejaVuSans-3d" transform="translate(774.804688 0)"/>
     <use xlink:href="#DejaVuSans-30" transform="translate(858.59375 0)"/>
     <use xlink:href="#DejaVuSans-2e" transform="translate(922.216797 0)"/>
     <use xlink:href="#DejaVuSans-30" transform="translate(954.003906 0)"/>
     <use xlink:href="#DejaVuSans-31" transform="translate(1017.626953 0)"/>
     <use xlink:href="#DejaVuSans-35" transform="translate(1081.25 0)"/>
     <use xlink:href="#DejaVuSans-32" transform="translate(1144.873047 0)"/>
    </g>
   </g>
   <g id="text_27">
    <!-- 1826 nm -->
    <g style="fill: #111827" transform="translate(577.973485 207.777063) scale(0.08 -0.08)">
     <use xlink:href="#DejaVuSans-31"/>
     <use xlink:href="#DejaVuSans-38" transform="translate(63.623047 0)"/>
     <use xlink:href="#DejaVuSans-32" transform="translate(127.246094 0)"/>
     <use xlink:href="#DejaVuSans-36" transform="translate(190.869141 0)"/>
     <use xlink:href="#DejaVuSans-20" transform="translate(254.492188 0)"/>
     <use xlink:href="#DejaVuSans-6e" transform="translate(286.279297 0)"/>
     <use xlink:href="#DejaVuSans-6d" transform="translate(349.658203 0)"/>
    </g>
    <!-- VIP=1.59 | coef=0.0074 -->
    <g style="fill: #111827" transform="translate(577.973485 216.777313) scale(0.08 -0.08)">
     <use xlink:href="#DejaVuSans-56"/>
     <use xlink:href="#DejaVuSans-49" transform="translate(68.408203 0)"/>
     <use xlink:href="#DejaVuSans-50" transform="translate(97.900391 0)"/>
     <use xlink:href="#DejaVuSans-3d" transform="translate(158.203125 0)"/>
     <use xlink:href="#DejaVuSans-31" transform="translate(241.992188 0)"/>
     <use xlink:href="#DejaVuSans-2e" transform="translate(305.615234 0)"/>
     <use xlink:href="#DejaVuSans-35" transform="translate(337.402344 0)"/>
     <use xlink:href="#DejaVuSans-39" transform="translate(401.025391 0)"/>
     <use xlink:href="#DejaVuSans-20" transform="translate(464.648438 0)"/>
     <use xlink:href="#DejaVuSans-7c" transform="translate(496.435547 0)"/>
     <use xlink:href="#DejaVuSans-20" transform="translate(530.126953 0)"/>
     <use xlink:href="#DejaVuSans-63" transform="translate(561.914062 0)"/>
     <use xlink:href="#DejaVuSans-6f" transform="translate(616.894531 0)"/>
     <use xlink:href="#DejaVuSans-65" transform="translate(678.076172 0)"/>
     <use xlink:href="#DejaVuSans-66" transform="translate(739.599609 0)"/>
     <use xlink:href="#DejaVuSans-3d" transform="translate(774.804688 0)"/>
     <use xlink:href="#DejaVuSans-30" transform="translate(858.59375 0)"/>
     <use xlink:href="#DejaVuSans-2e" transform="translate(922.216797 0)"/>
     <use xlink:href="#DejaVuSans-30" transform="translate(954.003906 0)"/>
     <use xlink:href="#DejaVuSans-30" transform="translate(1017.626953 0)"/>
     <use xlink:href="#DejaVuSans-37" transform="translate(1081.25 0)"/>
     <use xlink:href="#DejaVuSans-34" transform="translate(1144.873047 0)"/>
    </g>
   </g>
   <g id="text_28">
    <!-- 2149 nm -->
    <g style="fill: #111827" transform="translate(682.300487 172.856595) scale(0.08 -0.08)">
     <use xlink:href="#DejaVuSans-32"/>
     <use xlink:href="#DejaVuSans-31" transform="translate(63.623047 0)"/>
     <use xlink:href="#DejaVuSans-34" transform="translate(127.246094 0)"/>
     <use xlink:href="#DejaVuSans-39" transform="translate(190.869141 0)"/>
     <use xlink:href="#DejaVuSans-20" transform="translate(254.492188 0)"/>
     <use xlink:href="#DejaVuSans-6e" transform="translate(286.279297 0)"/>
     <use xlink:href="#DejaVuSans-6d" transform="translate(349.658203 0)"/>
    </g>
    <!-- VIP=1.49 | coef=0.0114 -->
    <g style="fill: #111827" transform="translate(682.300487 181.856845) scale(0.08 -0.08)">
     <use xlink:href="#DejaVuSans-56"/>
     <use xlink:href="#DejaVuSans-49" transform="translate(68.408203 0)"/>
     <use xlink:href="#DejaVuSans-50" transform="translate(97.900391 0)"/>
     <use xlink:href="#DejaVuSans-3d" transform="translate(158.203125 0)"/>
     <use xlink:href="#DejaVuSans-31" transform="translate(241.992188 0)"/>
     <use xlink:href="#DejaVuSans-2e" transform="translate(305.615234 0)"/>
     <use xlink:href="#DejaVuSans-34" transform="translate(337.402344 0)"/>
     <use xlink:href="#DejaVuSans-39" transform="translate(401.025391 0)"/>
     <use xlink:href="#DejaVuSans-20" transform="translate(464.648438 0)"/>
     <use xlink:href="#DejaVuSans-7c" transform="translate(496.435547 0)"/>
     <use xlink:href="#DejaVuSans-20" transform="translate(530.126953 0)"/>
     <use xlink:href="#DejaVuSans-63" transform="translate(561.914062 0)"/>
     <use xlink:href="#DejaVuSans-6f" transform="translate(616.894531 0)"/>
     <use xlink:href="#DejaVuSans-65" transform="translate(678.076172 0)"/>
     <use xlink:href="#DejaVuSans-66" transform="translate(739.599609 0)"/>
     <use xlink:href="#DejaVuSans-3d" transform="translate(774.804688 0)"/>
     <use xlink:href="#DejaVuSans-30" transform="translate(858.59375 0)"/>
     <use xlink:href="#DejaVuSans-2e" transform="translate(922.216797 0)"/>
     <use xlink:href="#DejaVuSans-30" transform="translate(954.003906 0)"/>
     <use xlink:href="#DejaVuSans-31" transform="translate(1017.626953 0)"/>
     <use xlink:href="#DejaVuSans-31" transform="translate(1081.25 0)"/>
     <use xlink:href="#DejaVuSans-34" transform="translate(1144.873047 0)"/>
    </g>
   </g>
   <g id="text_29">
    <!-- 383 nm -->
    <g style="fill: #111827" transform="translate(111.893411 137.936127) scale(0.08 -0.08)">
     <use xlink:href="#DejaVuSans-33"/>
     <use xlink:href="#DejaVuSans-38" transform="translate(63.623047 0)"/>
     <use xlink:href="#DejaVuSans-33" transform="translate(127.246094 0)"/>
     <use xlink:href="#DejaVuSans-20" transform="translate(190.869141 0)"/>
     <use xlink:href="#DejaVuSans-6e" transform="translate(222.65625 0)"/>
     <use xlink:href="#DejaVuSans-6d" transform="translate(286.035156 0)"/>
    </g>
    <!-- VIP=1.71 | coef=-0.0190 -->
    <g style="fill: #111827" transform="translate(111.893411 146.936377) scale(0.08 -0.08)">
     <use xlink:href="#DejaVuSans-56"/>
     <use xlink:href="#DejaVuSans-49" transform="translate(68.408203 0)"/>
     <use xlink:href="#DejaVuSans-50" transform="translate(97.900391 0)"/>
     <use xlink:href="#DejaVuSans-3d" transform="translate(158.203125 0)"/>
     <use xlink:href="#DejaVuSans-31" transform="translate(241.992188 0)"/>
     <use xlink:href="#DejaVuSans-2e" transform="translate(305.615234 0)"/>
     <use xlink:href="#DejaVuSans-37" transform="translate(337.402344 0)"/>
     <use xlink:href="#DejaVuSans-31" transform="translate(401.025391 0)"/>
     <use xlink:href="#DejaVuSans-20" transform="translate(464.648438 0)"/>
     <use xlink:href="#DejaVuSans-7c" transform="translate(496.435547 0)"/>
     <use xlink:href="#DejaVuSans-20" transform="translate(530.126953 0)"/>
     <use xlink:href="#DejaVuSans-63" transform="translate(561.914062 0)"/>
     <use xlink:href="#DejaVuSans-6f" transform="translate(616.894531 0)"/>
     <use xlink:href="#DejaVuSans-65" transform="translate(678.076172 0)"/>
     <use xlink:href="#DejaVuSans-66" transform="translate(739.599609 0)"/>
     <use xlink:href="#DejaVuSans-3d" transform="translate(774.804688 0)"/>
     <use xlink:href="#DejaVuSans-2d" transform="translate(858.59375 0)"/>
     <use xlink:href="#DejaVuSans-30" transform="translate(894.677734 0)"/>
     <use xlink:href="#DejaVuSans-2e" transform="translate(958.300781 0)"/>
     <use xlink:href="#DejaVuSans-30" transform="translate(990.087891 0)"/>
     <use xlink:href="#DejaVuSans-31" transform="translate(1053.710938 0)"/>
     <use xlink:href="#DejaVuSans-39" transform="translate(1117.333984 0)"/>
     <use xlink:href="#DejaVuSans-30" transform="translate(1180.957031 0)"/>
    </g>
   </g>
   <g id="text_30">
    <!-- 1668 nm -->
    <g style="fill: #111827" transform="translate(526.940462 103.015659) scale(0.08 -0.08)">
     <use xlink:href="#DejaVuSans-31"/>
     <use xlink:href="#DejaVuSans-36" transform="translate(63.623047 0)"/>
     <use xlink:href="#DejaVuSans-36" transform="translate(127.246094 0)"/>
     <use xlink:href="#DejaVuSans-38" transform="translate(190.869141 0)"/>
     <use xlink:href="#DejaVuSans-20" transform="translate(254.492188 0)"/>
     <use xlink:href="#DejaVuSans-6e" transform="translate(286.279297 0)"/>
     <use xlink:href="#DejaVuSans-6d" transform="translate(349.658203 0)"/>
    </g>
    <!-- VIP=1.69 | coef=0.0142 -->
    <g style="fill: #111827" transform="translate(526.940462 112.015909) scale(0.08 -0.08)">
     <use xlink:href="#DejaVuSans-56"/>
     <use xlink:href="#DejaVuSans-49" transform="translate(68.408203 0)"/>
     <use xlink:href="#DejaVuSans-50" transform="translate(97.900391 0)"/>
     <use xlink:href="#DejaVuSans-3d" transform="translate(158.203125 0)"/>
     <use xlink:href="#DejaVuSans-31" transform="translate(241.992188 0)"/>
     <use xlink:href="#DejaVuSans-2e" transform="translate(305.615234 0)"/>
     <use xlink:href="#DejaVuSans-36" transform="translate(337.402344 0)"/>
     <use xlink:href="#DejaVuSans-39" transform="translate(401.025391 0)"/>
     <use xlink:href="#DejaVuSans-20" transform="translate(464.648438 0)"/>
     <use xlink:href="#DejaVuSans-7c" transform="translate(496.435547 0)"/>
     <use xlink:href="#DejaVuSans-20" transform="translate(530.126953 0)"/>
     <use xlink:href="#DejaVuSans-63" transform="translate(561.914062 0)"/>
     <use xlink:href="#DejaVuSans-6f" transform="translate(616.894531 0)"/>
     <use xlink:href="#DejaVuSans-65" transform="translate(678.076172 0)"/>
     <use xlink:href="#DejaVuSans-66" transform="translate(739.599609 0)"/>
     <use xlink:href="#DejaVuSans-3d" transform="translate(774.804688 0)"/>
     <use xlink:href="#DejaVuSans-30" transform="translate(858.59375 0)"/>
     <use xlink:href="#DejaVuSans-2e" transform="translate(922.216797 0)"/>
     <use xlink:href="#DejaVuSans-30" transform="translate(954.003906 0)"/>
     <use xlink:href="#DejaVuSans-31" transform="translate(1017.626953 0)"/>
     <use xlink:href="#DejaVuSans-34" transform="translate(1081.25 0)"/>
     <use xlink:href="#DejaVuSans-32" transform="translate(1144.873047 0)"/>
    </g>
   </g>
   <g id="text_31">
    <!-- 2281 nm -->
    <g style="fill: #111827" transform="translate(724.93567 68.095192) scale(0.08 -0.08)">
     <use xlink:href="#DejaVuSans-32"/>
     <use xlink:href="#DejaVuSans-32" transform="translate(63.623047 0)"/>
     <use xlink:href="#DejaVuSans-38" transform="translate(127.246094 0)"/>
     <use xlink:href="#DejaVuSans-31" transform="translate(190.869141 0)"/>
     <use xlink:href="#DejaVuSans-20" transform="translate(254.492188 0)"/>
     <use xlink:href="#DejaVuSans-6e" transform="translate(286.279297 0)"/>
     <use xlink:href="#DejaVuSans-6d" transform="translate(349.658203 0)"/>
    </g>
    <!-- VIP=1.74 | coef=-0.0110 -->
    <g style="fill: #111827" transform="translate(724.93567 77.095442) scale(0.08 -0.08)">
     <use xlink:href="#DejaVuSans-56"/>
     <use xlink:href="#DejaVuSans-49" transform="translate(68.408203 0)"/>
     <use xlink:href="#DejaVuSans-50" transform="translate(97.900391 0)"/>
     <use xlink:href="#DejaVuSans-3d" transform="translate(158.203125 0)"/>
     <use xlink:href="#DejaVuSans-31" transform="translate(241.992188 0)"/>
     <use xlink:href="#DejaVuSans-2e" transform="translate(305.615234 0)"/>
     <use xlink:href="#DejaVuSans-37" transform="translate(337.402344 0)"/>
     <use xlink:href="#DejaVuSans-34" transform="translate(401.025391 0)"/>
     <use xlink:href="#DejaVuSans-20" transform="translate(464.648438 0)"/>
     <use xlink:href="#DejaVuSans-7c" transform="translate(496.435547 0)"/>
     <use xlink:href="#DejaVuSans-20" transform="translate(530.126953 0)"/>
     <use xlink:href="#DejaVuSans-63" transform="translate(561.914062 0)"/>
     <use xlink:href="#DejaVuSans-6f" transform="translate(616.894531 0)"/>
     <use xlink:href="#DejaVuSans-65" transform="translate(678.076172 0)"/>
     <use xlink:href="#DejaVuSans-66" transform="translate(739.599609 0)"/>
     <use xlink:href="#DejaVuSans-3d" transform="translate(774.804688 0)"/>
     <use xlink:href="#DejaVuSans-2d" transform="translate(858.59375 0)"/>
     <use xlink:href="#DejaVuSans-30" transform="translate(894.677734 0)"/>
     <use xlink:href="#DejaVuSans-2e" transform="translate(958.300781 0)"/>
     <use xlink:href="#DejaVuSans-30" transform="translate(990.087891 0)"/>
     <use xlink:href="#DejaVuSans-31" transform="translate(1053.710938 0)"/>
     <use xlink:href="#DejaVuSans-31" transform="translate(1117.333984 0)"/>
     <use xlink:href="#DejaVuSans-30" transform="translate(1180.957031 0)"/>
    </g>
   </g>
   <g id="text_32">
    <!-- 975 nm -->
    <g style="fill: #111827" transform="translate(303.105749 33.174724) scale(0.08 -0.08)">
     <use xlink:href="#DejaVuSans-39"/>
     <use xlink:href="#DejaVuSans-37" transform="translate(63.623047 0)"/>
     <use xlink:href="#DejaVuSans-35" transform="translate(127.246094 0)"/>
     <use xlink:href="#DejaVuSans-20" transform="translate(190.869141 0)"/>
     <use xlink:href="#DejaVuSans-6e" transform="translate(222.65625 0)"/>
     <use xlink:href="#DejaVuSans-6d" transform="translate(286.035156 0)"/>
    </g>
    <!-- VIP=1.42 | coef=-0.0131 -->
    <g style="fill: #111827" transform="translate(303.105749 42.174974) scale(0.08 -0.08)">
     <use xlink:href="#DejaVuSans-56"/>
     <use xlink:href="#DejaVuSans-49" transform="translate(68.408203 0)"/>
     <use xlink:href="#DejaVuSans-50" transform="translate(97.900391 0)"/>
     <use xlink:href="#DejaVuSans-3d" transform="translate(158.203125 0)"/>
     <use xlink:href="#DejaVuSans-31" transform="translate(241.992188 0)"/>
     <use xlink:href="#DejaVuSans-2e" transform="translate(305.615234 0)"/>
     <use xlink:href="#DejaVuSans-34" transform="translate(337.402344 0)"/>
     <use xlink:href="#DejaVuSans-32" transform="translate(401.025391 0)"/>
     <use xlink:href="#DejaVuSans-20" transform="translate(464.648438 0)"/>
     <use xlink:href="#DejaVuSans-7c" transform="translate(496.435547 0)"/>
     <use xlink:href="#DejaVuSans-20" transform="translate(530.126953 0)"/>
     <use xlink:href="#DejaVuSans-63" transform="translate(561.914062 0)"/>
     <use xlink:href="#DejaVuSans-6f" transform="translate(616.894531 0)"/>
     <use xlink:href="#DejaVuSans-65" transform="translate(678.076172 0)"/>
     <use xlink:href="#DejaVuSans-66" transform="translate(739.599609 0)"/>
     <use xlink:href="#DejaVuSans-3d" transform="translate(774.804688 0)"/>
     <use xlink:href="#DejaVuSans-2d" transform="translate(858.59375 0)"/>
     <use xlink:href="#DejaVuSans-30" transform="translate(894.677734 0)"/>
     <use xlink:href="#DejaVuSans-2e" transform="translate(958.300781 0)"/>
     <use xlink:href="#DejaVuSans-30" transform="translate(990.087891 0)"/>
     <use xlink:href="#DejaVuSans-31" transform="translate(1053.710938 0)"/>
     <use xlink:href="#DejaVuSans-33" transform="translate(1117.333984 0)"/>
     <use xlink:href="#DejaVuSans-31" transform="translate(1180.957031 0)"/>
    </g>
   </g>
   <g id="text_33">
    <!-- Banda otima #1 por subconjunto -->
    <g transform="translate(340.934528 12.118365) scale(0.12 -0.12)">
     <defs>
      <path id="DejaVuSans-73" d="M 2834 3397 
L 2834 2853 
Q 2591 2978 2328 3040 
Q 2066 3103 1784 3103 
Q 1356 3103 1142 2972 
Q 928 2841 928 2578 
Q 928 2378 1081 2264 
Q 1234 2150 1697 2047 
L 1894 2003 
Q 2506 1872 2764 1633 
Q 3022 1394 3022 966 
Q 3022 478 2636 193 
Q 2250 -91 1575 -91 
Q 1294 -91 989 -36 
Q 684 19 347 128 
L 347 722 
Q 666 556 975 473 
Q 1284 391 1588 391 
Q 1994 391 2212 530 
Q 2431 669 2431 922 
Q 2431 1156 2273 1281 
Q 2116 1406 1581 1522 
L 1381 1569 
Q 847 1681 609 1914 
Q 372 2147 372 2553 
Q 372 3047 722 3315 
Q 1072 3584 1716 3584 
Q 2034 3584 2315 3537 
Q 2597 3491 2834 3397 
z
" transform="scale(0.015625)"/>
      <path id="DejaVuSans-6a" d="M 603 3500 
L 1178 3500 
L 1178 -63 
Q 1178 -731 923 -1031 
Q 669 -1331 103 -1331 
L -116 -1331 
L -116 -844 
L 38 -844 
Q 366 -844 484 -692 
Q 603 -541 603 -63 
L 603 3500 
z
M 603 4863 
L 1178 4863 
L 1178 4134 
L 603 4134 
L 603 4863 
z
" transform="scale(0.015625)"/>
     </defs>
     <use xlink:href="#DejaVuSans-42"/>
     <use xlink:href="#DejaVuSans-61" transform="translate(68.603516 0)"/>
     <use xlink:href="#DejaVuSans-6e" transform="translate(129.882812 0)"/>
     <use xlink:href="#DejaVuSans-64" transform="translate(193.261719 0)"/>
     <use xlink:href="#DejaVuSans-61" transform="translate(256.738281 0)"/>
     <use xlink:href="#DejaVuSans-20" transform="translate(318.017578 0)"/>
     <use xlink:href="#DejaVuSans-6f" transform="translate(349.804688 0)"/>
     <use xlink:href="#DejaVuSans-74" transform="translate(410.986328 0)"/>
     <use xlink:href="#DejaVuSans-69" transform="translate(450.195312 0)"/>
     <use xlink:href="#DejaVuSans-6d" transform="translate(477.978516 0)"/>
     <use xlink:href="#DejaVuSans-61" transform="translate(575.390625 0)"/>
     <use xlink:href="#DejaVuSans-20" transform="translate(636.669922 0)"/>
     <use xlink:href="#DejaVuSans-23" transform="translate(668.457031 0)"/>
     <use xlink:href="#DejaVuSans-31" transform="translate(752.246094 0)"/>
     <use xlink:href="#DejaVuSans-20" transform="translate(815.869141 0)"/>
     <use xlink:href="#DejaVuSans-70" transform="translate(847.65625 0)"/>
     <use xlink:href="#DejaVuSans-6f" transform="translate(911.132812 0)"/>
     <use xlink:href="#DejaVuSans-72" transform="translate(972.314453 0)"/>
     <use xlink:href="#DejaVuSans-20" transform="translate(1013.427734 0)"/>
     <use xlink:href="#DejaVuSans-73" transform="translate(1045.214844 0)"/>
     <use xlink:href="#DejaVuSans-75" transform="translate(1097.314453 0)"/>
     <use xlink:href="#DejaVuSans-62" transform="translate(1160.693359 0)"/>
     <use xlink:href="#DejaVuSans-63" transform="translate(1224.169922 0)"/>
     <use xlink:href="#DejaVuSans-6f" transform="translate(1279.150391 0)"/>
     <use xlink:href="#DejaVuSans-6e" transform="translate(1340.332031 0)"/>
     <use xlink:href="#DejaVuSans-6a" transform="translate(1403.710938 0)"/>
     <use xlink:href="#DejaVuSans-75" transform="translate(1431.494141 0)"/>
     <use xlink:href="#DejaVuSans-6e" transform="translate(1494.873047 0)"/>
     <use xlink:href="#DejaVuSans-74" transform="translate(1558.251953 0)"/>
     <use xlink:href="#DejaVuSans-6f" transform="translate(1597.460938 0)"/>
    </g>
   </g>
  </g>
 </g>
 <defs>
  <clipPath id="pe4c6d07c9d">
   <rect x="93.234615" y="18.118365" width="694.436701" height="384.125145"/>
  </clipPath>
 </defs>
</svg>
