<?xml version="1.0" encoding="utf-8" standalone="no"?>
<!DOCTYPE svg PUBLIC "-//W3C//DTD SVG 1.1//EN"
  "http://www.w3.org/Graphics/SVG/1.1/DTD/svg11.dtd">
<svg xmlns:xlink="http://www.w3.org/1999/xlink" width="864pt" height="396pt" viewBox="0 0 864 396" xmlns="http://www.w3.org/2000/svg" version="1.1">
 <metadata>
  <rdf:RDF xmlns:dc="http://purl.org/dc/elements/1.1/" xmlns:cc="http://creativecommons.org/ns#" xmlns:rdf="http://www.w3.org/1999/02/22-rdf-syntax-ns#">
   <cc:Work>
    <dc:type rdf:resource="http://purl.org/dc/dcmitype/StillImage"/>
    <dc:date>2026-03-20T12:37:13.722744</dc:date>
    <dc:format>image/svg+xml</dc:format>
    <dc:creator>
     <cc:Agent>
      <dc:title>Matplotlib v3.10.8, https://matplotlib.org/</dc:title>
     </cc:Agent>
    </dc:creator>
   </cc:Work>
  </rdf:RDF>
 </metadata>
 <defs>
  <style type="text/css">*{stroke-linejoin: round; stroke-linecap: butt}</style>
 </defs>
 <g id="figure_1">
  <g id="patch_1">
   <path d="M 0 396 
L 864 396 
L 864 0 
L 0 0 
z
" style="fill: #ffffff"/>
  </g>
  <g id="axes_1">
   <g id="patch_2">
    <path d="M 47.961178 362.64351 
L 860.99976 362.64351 
L 860.99976 18.118365 
L 47.961178 18.118365 
z
" style="fill: #ffffff"/>
   </g>
   <g id="matplotlib.axis_1">
    <g id="xtick_1">
     <g id="line2d_1">
      <path d="M 136.484406 362.64351 
L 136.484406 18.118365 
" clip-path="url(#p307c92c44b)" style="fill: none; stroke: #b0b0b0; stroke-opacity: 0.18; stroke-width: 0.8; stroke-linecap: square"/>
     </g>
     <g id="line2d_2">
      <defs>
       <path id="maaefda8202" d="M 0 0 
L 0 3.5 
" style="stroke: #000000; stroke-width: 0.8"/>
      </defs>
      <g>
       <use xlink:href="#maaefda8202" x="136.484406" y="362.64351" style="stroke: #000000; stroke-width: 0.8"/>
      </g>
     </g>
     <g id="text_1">
      <!-- 500 -->
      <g transform="translate(126.940656 377.241947) scale(0.1 -0.1)">
       <defs>
        <path id="DejaVuSans-35" d="M 691 4666 
L 3169 4666 
L 3169 4134 
L 1269 4134 
L 1269 2991 
Q 1406 3038 1543 3061 
Q 1681 3084 1819 3084 
Q 2600 3084 3056 2656 
Q 3513 2228 3513 1497 
Q 3513 744 3044 326 
Q 2575 -91 1722 -91 
Q 1428 -91 1123 -41 
Q 819 9 494 109 
L 494 744 
Q 775 591 1075 516 
Q 1375 441 1709 441 
Q 2250 441 2565 725 
Q 2881 1009 2881 1497 
Q 2881 1984 2565 2268 
Q 2250 2553 1709 2553 
Q 1456 2553 1204 2497 
Q 953 2441 691 2322 
L 691 4666 
z
" transform="scale(0.015625)"/>
        <path id="DejaVuSans-30" d="M 2034 4250 
Q 1547 4250 1301 3770 
Q 1056 3291 1056 2328 
Q 1056 1369 1301 889 
Q 1547 409 2034 409 
Q 2525 409 2770 889 
Q 3016 1369 3016 2328 
Q 3016 3291 2770 3770 
Q 2525 4250 2034 4250 
z
M 2034 4750 
Q 2819 4750 3233 4129 
Q 3647 3509 3647 2328 
Q 3647 1150 3233 529 
Q 2819 -91 2034 -91 
Q 1250 -91 836 529 
Q 422 1150 422 2328 
Q 422 3509 836 4129 
Q 1250 4750 2034 4750 
z
" transform="scale(0.015625)"/>
       </defs>
       <use xlink:href="#DejaVuSans-35"/>
       <use xlink:href="#DejaVuSans-30" transform="translate(63.623047 0)"/>
       <use xlink:href="#DejaVuSans-30" transform="translate(127.246094 0)"/>
      </g>
     </g>
    </g>
    <g id="xtick_2">
     <g id="line2d_3">
      <path d="M 308.37417 362.64351 
L 308.37417 18.118365 
" clip-path="url(#p307c92c44b)" style="fill: none; stroke: #b0b0b0; stroke-opacity: 0.18; stroke-width: 0.8; stroke-linecap: square"/>
     </g>
     <g id="line2d_4">
      <g>
       <use xlink:href="#maaefda8202" x="308.37417" y="362.64351" style="stroke: #000000; stroke-width: 0.8"/>
      </g>
     </g>
     <g id="text_2">
      <!-- 1000 -->
      <g transform="translate(295.64917 377.241947) scale(0.1 -0.1)">
       <defs>
        <path id="DejaVuSans-31" d="M 794 531 
L 1825 531 
L 1825 4091 
L 703 3866 
L 703 4441 
L 1819 4666 
L 2450 4666 
L 2450 531 
L 3481 531 
L 3481 0 
L 794 0 
L 794 531 
z
" transform="scale(0.015625)"/>
       </defs>
       <use xlink:href="#DejaVuSans-31"/>
       <use xlink:href="#DejaVuSans-30" transform="translate(63.623047 0)"/>
       <use xlink:href="#DejaVuSans-30" transform="translate(127.246094 0)"/>
       <use xlink:href="#DejaVuSans-30" transform="translate(190.869141 0)"/>
      </g>
     </g>
    </g>
    <g id="xtick_3">
     <g id="line2d_5">
      <path d="M 480.263933 362.64351 
L 480.263933 18.118365 
" clip-path="url(#p307c92c44b)" style="fill: none; stroke: #b0b0b0; stroke-opacity: 0.18; stroke-width: 0.8; stroke-linecap: square"/>
     </g>
     <g id="line2d_6">
      <g>
       <use xlink:href="#maaefda8202" x="480.263933" y="362.64351" style="stroke: #000000; stroke-width: 0.8"/>
      </g>
     </g>
     <g id="text_3">
      <!-- 1500 -->
      <g transform="translate(467.538933 377.241947) scale(0.1 -0.1)">
       <use xlink:href="#DejaVuSans-31"/>
       <use xlink:href="#DejaVuSans-35" transform="translate(63.623047 0)"/>
       <use xlink:href="#DejaVuSans-30" transform="translate(127.246094 0)"/>
       <use xlink:href="#DejaVuSans-30" transform="translate(190.869141 0)"/>
      </g>
     </g>
    </g>
    <g id="xtick_4">
     <g id="line2d_7">
      <path d="M 652.153697 362.64351 
L 652.153697 18.118365 
" clip-path="url(#p307c92c44b)" style="fill: none; stroke: #b0b0b0; stroke-opacity: 0.18; stroke-width: 0.8; stroke-linecap: square"/>
     </g>
     <g id="line2d_8">
      <g>
       <use xlink:href="#maaefda8202" x="652.153697" y="362.64351" style="stroke: #000000; stroke-width: 0.8"/>
      </g>
     </g>
     <g id="text_4">
      <!-- 2000 -->
      <g transform="translate(639.428697 377.241947) scale(0.1 -0.1)">
       <defs>
        <path id="DejaVuSans-32" d="M 1228 531 
L 3431 531 
L 3431 0 
L 469 0 
L 469 531 
Q 828 903 1448 1529 
Q 2069 2156 2228 2338 
Q 2531 2678 2651 2914 
Q 2772 3150 2772 3378 
Q 2772 3750 2511 3984 
Q 2250 4219 1831 4219 
Q 1534 4219 1204 4116 
Q 875 4013 500 3803 
L 500 4441 
Q 881 4594 1212 4672 
Q 1544 4750 1819 4750 
Q 2544 4750 2975 4387 
Q 3406 4025 3406 3419 
Q 3406 3131 3298 2873 
Q 3191 2616 2906 2266 
Q 2828 2175 2409 1742 
Q 1991 1309 1228 531 
z
" transform="scale(0.015625)"/>
       </defs>
       <use xlink:href="#DejaVuSans-32"/>
       <use xlink:href="#DejaVuSans-30" transform="translate(63.623047 0)"/>
       <use xlink:href="#DejaVuSans-30" transform="translate(127.246094 0)"/>
       <use xlink:href="#DejaVuSans-30" transform="translate(190.869141 0)"/>
      </g>
     </g>
    </g>
    <g id="xtick_5">
     <g id="line2d_9">
      <path d="M 824.043461 362.64351 
L 824.043461 18.118365 
" clip-path="url(#p307c92c44b)" style="fill: none; stroke: #b0b0b0; stroke-opacity: 0.18; stroke-width: 0.8; stroke-linecap: square"/>
     </g>
     <g id="line2d_10">
      <g>
       <use xlink:href="#maaefda8202" x="824.043461" y="362.64351" style="stroke: #000000; stroke-width: 0.8"/>
      </g>
     </g>
     <g id="text_5">
      <!-- 2500 -->
      <g transform="translate(811.318461 377.241947) scale(0.1 -0.1)">
       <use xlink:href="#DejaVuSans-32"/>
       <use xlink:href="#DejaVuSans-35" transform="translate(63.623047 0)"/>
       <use xlink:href="#DejaVuSans-30" transform="translate(127.246094 0)"/>
       <use xlink:href="#DejaVuSans-30" transform="translate(190.869141 0)"/>
      </g>
     </g>
    </g>
    <g id="text_6">
     <!-- Comprimento de onda (nm) -->
     <g transform="translate(384.880469 390.920073) scale(0.1 -0.1)">
      <defs>
       <path id="DejaVuSans-43" d="M 4122 4306 
L 4122 3641 
Q 3803 3938 3442 4084 
Q 3081 4231 2675 4231 
Q 1875 4231 1450 3742 
Q 1025 3253 1025 2328 
Q 1025 1406 1450 917 
Q 1875 428 2675 428 
Q 3081 428 3442 575 
Q 3803 722 4122 1019 
L 4122 359 
Q 3791 134 3420 21 
Q 3050 -91 2638 -91 
Q 1578 -91 968 557 
Q 359 1206 359 2328 
Q 359 3453 968 4101 
Q 1578 4750 2638 4750 
Q 3056 4750 3426 4639 
Q 3797 4528 4122 4306 
z
" transform="scale(0.015625)"/>
       <path id="DejaVuSans-6f" d="M 1959 3097 
Q 1497 3097 1228 2736 
Q 959 2375 959 1747 
Q 959 1119 1226 758 
Q 1494 397 1959 397 
Q 2419 397 2687 759 
Q 2956 1122 2956 1747 
Q 2956 2369 2687 2733 
Q 2419 3097 1959 3097 
z
M 1959 3584 
Q 2709 3584 3137 3096 
Q 3566 2609 3566 1747 
Q 3566 888 3137 398 
Q 2709 -91 1959 -91 
Q 1206 -91 779 398 
Q 353 888 353 1747 
Q 353 2609 779 3096 
Q 1206 3584 1959 3584 
z
" transform="scale(0.015625)"/>
       <path id="DejaVuSans-6d" d="M 3328 2828 
Q 3544 3216 3844 3400 
Q 4144 3584 4550 3584 
Q 5097 3584 5394 3201 
Q 5691 2819 5691 2113 
L 5691 0 
L 5113 0 
L 5113 2094 
Q 5113 2597 4934 2840 
Q 4756 3084 4391 3084 
Q 3944 3084 3684 2787 
Q 3425 2491 3425 1978 
L 3425 0 
L 2847 0 
L 2847 2094 
Q 2847 2600 2669 2842 
Q 2491 3084 2119 3084 
Q 1678 3084 1418 2786 
Q 1159 2488 1159 1978 
L 1159 0 
L 581 0 
L 581 3500 
L 1159 3500 
L 1159 2956 
Q 1356 3278 1631 3431 
Q 1906 3584 2284 3584 
Q 2666 3584 2933 3390 
Q 3200 3197 3328 2828 
z
" transform="scale(0.015625)"/>
       <path id="DejaVuSans-70" d="M 1159 525 
L 1159 -1331 
L 581 -1331 
L 581 3500 
L 1159 3500 
L 1159 2969 
Q 1341 3281 1617 3432 
Q 1894 3584 2278 3584 
Q 2916 3584 3314 3078 
Q 3713 2572 3713 1747 
Q 3713 922 3314 415 
Q 2916 -91 2278 -91 
Q 1894 -91 1617 61 
Q 1341 213 1159 525 
z
M 3116 1747 
Q 3116 2381 2855 2742 
Q 2594 3103 2138 3103 
Q 1681 3103 1420 2742 
Q 1159 2381 1159 1747 
Q 1159 1113 1420 752 
Q 1681 391 2138 391 
Q 2594 391 2855 752 
Q 3116 1113 3116 1747 
z
" transform="scale(0.015625)"/>
       <path id="DejaVuSans-72" d="M 2631 2963 
Q 2534 3019 2420 3045 
Q 2306 3072 2169 3072 
Q 1681 3072 1420 2755 
Q 1159 2438 1159 1844 
L 1159 0 
L 581 0 
L 581 3500 
L 1159 3500 
L 1159 2956 
Q 1341 3275 1631 3429 
Q 1922 3584 2338 3584 
Q 2397 3584 2469 3576 
Q 2541 3569 2628 3553 
L 2631 2963 
z
" transform="scale(0.015625)"/>
       <path id="DejaVuSans-69" d="M 603 3500 
L 1178 3500 
L 1178 0 
L 603 0 
L 603 3500 
z
M 603 4863 
L 1178 4863 
L 1178 4134 
L 603 4134 
L 603 4863 
z
" transform="scale(0.015625)"/>
       <path id="DejaVuSans-65" d="M 3597 1894 
L 3597 1613 
L 953 1613 
Q 991 1019 1311 708 
Q 1631 397 2203 397 
Q 2534 397 2845 478 
Q 3156 559 3463 722 
L 3463 178 
Q 3153 47 2828 -22 
Q 2503 -91 2169 -91 
Q 1331 -91 842 396 
Q 353 884 353 1716 
Q 353 2575 817 3079 
Q 1281 3584 2069 3584 
Q 2775 3584 3186 3129 
Q 3597 2675 3597 1894 
z
M 3022 2063 
Q 3016 2534 2758 2815 
Q 2500 3097 2075 3097 
Q 1594 3097 1305 2825 
Q 1016 2553 972 2059 
L 3022 2063 
z
" transform="scale(0.015625)"/>
       <path id="DejaVuSans-6e" d="M 3513 2113 
L 3513 0 
L 2938 0 
L 2938 2094 
Q 2938 2591 2744 2837 
Q 2550 3084 2163 3084 
Q 1697 3084 1428 2787 
Q 1159 2491 1159 1978 
L 1159 0 
L 581 0 
L 581 3500 
L 1159 3500 
L 1159 2956 
Q 1366 3272 1645 3428 
Q 1925 3584 2291 3584 
Q 2894 3584 3203 3211 
Q 3513 2838 3513 2113 
z
" transform="scale(0.015625)"/>
       <path id="DejaVuSans-74" d="M 1172 4494 
L 1172 3500 
L 2356 3500 
L 2356 3053 
L 1172 3053 
L 1172 1153 
Q 1172 725 1289 603 
Q 1406 481 1766 481 
L 2356 481 
L 2356 0 
L 1766 0 
Q 1100 0 847 248 
Q 594 497 594 1153 
L 594 3053 
L 172 3053 
L 172 3500 
L 594 3500 
L 594 4494 
L 1172 4494 
z
" transform="scale(0.015625)"/>
       <path id="DejaVuSans-20" transform="scale(0.015625)"/>
       <path id="DejaVuSans-64" d="M 2906 2969 
L 2906 4863 
L 3481 4863 
L 3481 0 
L 2906 0 
L 2906 525 
Q 2725 213 2448 61 
Q 2172 -91 1784 -91 
Q 1150 -91 751 415 
Q 353 922 353 1747 
Q 353 2572 751 3078 
Q 1150 3584 1784 3584 
Q 2172 3584 2448 3432 
Q 2725 3281 2906 2969 
z
M 947 1747 
Q 947 1113 1208 752 
Q 1469 391 1925 391 
Q 2381 391 2643 752 
Q 2906 1113 2906 1747 
Q 2906 2381 2643 2742 
Q 2381 3103 1925 3103 
Q 1469 3103 1208 2742 
Q 947 2381 947 1747 
z
" transform="scale(0.015625)"/>
       <path id="DejaVuSans-61" d="M 2194 1759 
Q 1497 1759 1228 1600 
Q 959 1441 959 1056 
Q 959 750 1161 570 
Q 1363 391 1709 391 
Q 2188 391 2477 730 
Q 2766 1069 2766 1631 
L 2766 1759 
L 2194 1759 
z
M 3341 1997 
L 3341 0 
L 2766 0 
L 2766 531 
Q 2569 213 2275 61 
Q 1981 -91 1556 -91 
Q 1019 -91 701 211 
Q 384 513 384 1019 
Q 384 1609 779 1909 
Q 1175 2209 1959 2209 
L 2766 2209 
L 2766 2266 
Q 2766 2663 2505 2880 
Q 2244 3097 1772 3097 
Q 1472 3097 1187 3025 
Q 903 2953 641 2809 
L 641 3341 
Q 956 3463 1253 3523 
Q 1550 3584 1831 3584 
Q 2591 3584 2966 3190 
Q 3341 2797 3341 1997 
z
" transform="scale(0.015625)"/>
       <path id="DejaVuSans-28" d="M 1984 4856 
Q 1566 4138 1362 3434 
Q 1159 2731 1159 2009 
Q 1159 1288 1364 580 
Q 1569 -128 1984 -844 
L 1484 -844 
Q 1016 -109 783 600 
Q 550 1309 550 2009 
Q 550 2706 781 3412 
Q 1013 4119 1484 4856 
L 1984 4856 
z
" transform="scale(0.015625)"/>
       <path id="DejaVuSans-29" d="M 513 4856 
L 1013 4856 
Q 1481 4119 1714 3412 
Q 1947 2706 1947 2009 
Q 1947 1309 1714 600 
Q 1481 -109 1013 -844 
L 513 -844 
Q 928 -128 1133 580 
Q 1338 1288 1338 2009 
Q 1338 2731 1133 3434 
Q 928 4138 513 4856 
z
" transform="scale(0.015625)"/>
      </defs>
      <use xlink:href="#DejaVuSans-43"/>
      <use xlink:href="#DejaVuSans-6f" transform="translate(69.824219 0)"/>
      <use xlink:href="#DejaVuSans-6d" transform="translate(131.005859 0)"/>
      <use xlink:href="#DejaVuSans-70" transform="translate(228.417969 0)"/>
      <use xlink:href="#DejaVuSans-72" transform="translate(291.894531 0)"/>
      <use xlink:href="#DejaVuSans-69" transform="translate(333.007812 0)"/>
      <use xlink:href="#DejaVuSans-6d" transform="translate(360.791016 0)"/>
      <use xlink:href="#DejaVuSans-65" transform="translate(458.203125 0)"/>
      <use xlink:href="#DejaVuSans-6e" transform="translate(519.726562 0)"/>
      <use xlink:href="#DejaVuSans-74" transform="translate(583.105469 0)"/>
      <use xlink:href="#DejaVuSans-6f" transform="translate(622.314453 0)"/>
      <use xlink:href="#DejaVuSans-20" transform="translate(683.496094 0)"/>
      <use xlink:href="#DejaVuSans-64" transform="translate(715.283203 0)"/>
      <use xlink:href="#DejaVuSans-65" transform="translate(778.759766 0)"/>
      <use xlink:href="#DejaVuSans-20" transform="translate(840.283203 0)"/>
      <use xlink:href="#DejaVuSans-6f" transform="translate(872.070312 0)"/>
      <use xlink:href="#DejaVuSans-6e" transform="translate(933.251953 0)"/>
      <use xlink:href="#DejaVuSans-64" transform="translate(996.630859 0)"/>
      <use xlink:href="#DejaVuSans-61" transform="translate(1060.107422 0)"/>
      <use xlink:href="#DejaVuSans-20" transform="translate(1121.386719 0)"/>
      <use xlink:href="#DejaVuSans-28" transform="translate(1153.173828 0)"/>
      <use xlink:href="#DejaVuSans-6e" transform="translate(1192.1875 0)"/>
      <use xlink:href="#DejaVuSans-6d" transform="translate(1255.566406 0)"/>
      <use xlink:href="#DejaVuSans-29" transform="translate(1352.978516 0)"/>
     </g>
    </g>
   </g>
   <g id="matplotlib.axis_2">
    <g id="ytick_1">
     <g id="line2d_11">
      <path d="M 47.961178 343.931497 
L 860.99976 343.931497 
" clip-path="url(#p307c92c44b)" style="fill: none; stroke: #b0b0b0; stroke-opacity: 0.18; stroke-width: 0.8; stroke-linecap: square"/>
     </g>
     <g id="line2d_12">
      <defs>
       <path id="maa05de120c" d="M 0 0 
L -3.5 0 
" style="stroke: #000000; stroke-width: 0.8"/>
      </defs>
      <g>
       <use xlink:href="#maa05de120c" x="47.961178" y="343.931497" style="stroke: #000000; stroke-width: 0.8"/>
      </g>
     </g>
     <g id="text_7">
      <!-- −0.1 -->
      <g transform="translate(16.678365 347.730715) scale(0.1 -0.1)">
       <defs>
        <path id="DejaVuSans-2212" d="M 678 2272 
L 4684 2272 
L 4684 1741 
L 678 1741 
L 678 2272 
z
" transform="scale(0.015625)"/>
        <path id="DejaVuSans-2e" d="M 684 794 
L 1344 794 
L 1344 0 
L 684 0 
L 684 794 
z
" transform="scale(0.015625)"/>
       </defs>
       <use xlink:href="#DejaVuSans-2212"/>
       <use xlink:href="#DejaVuSans-30" transform="translate(83.789062 0)"/>
       <use xlink:href="#DejaVuSans-2e" transform="translate(147.412109 0)"/>
       <use xlink:href="#DejaVuSans-31" transform="translate(179.199219 0)"/>
      </g>
     </g>
    </g>
    <g id="ytick_2">
     <g id="line2d_13">
      <path d="M 47.961178 272.162998 
L 860.99976 272.162998 
" clip-path="url(#p307c92c44b)" style="fill: none; stroke: #b0b0b0; stroke-opacity: 0.18; stroke-width: 0.8; stroke-linecap: square"/>
     </g>
     <g id="line2d_14">
      <g>
       <use xlink:href="#maa05de120c" x="47.961178" y="272.162998" style="stroke: #000000; stroke-width: 0.8"/>
      </g>
     </g>
     <g id="text_8">
      <!-- 0.0 -->
      <g transform="translate(25.058053 275.962217) scale(0.1 -0.1)">
       <use xlink:href="#DejaVuSans-30"/>
       <use xlink:href="#DejaVuSans-2e" transform="translate(63.623047 0)"/>
       <use xlink:href="#DejaVuSans-30" transform="translate(95.410156 0)"/>
      </g>
     </g>
    </g>
    <g id="ytick_3">
     <g id="line2d_15">
      <path d="M 47.961178 200.394499 
L 860.99976 200.394499 
" clip-path="url(#p307c92c44b)" style="fill: none; stroke: #b0b0b0; stroke-opacity: 0.18; stroke-width: 0.8; stroke-linecap: square"/>
     </g>
     <g id="line2d_16">
      <g>
       <use xlink:href="#maa05de120c" x="47.961178" y="200.394499" style="stroke: #000000; stroke-width: 0.8"/>
      </g>
     </g>
     <g id="text_9">
      <!-- 0.1 -->
      <g transform="translate(25.058053 204.193718) scale(0.1 -0.1)">
       <use xlink:href="#DejaVuSans-30"/>
       <use xlink:href="#DejaVuSans-2e" transform="translate(63.623047 0)"/>
       <use xlink:href="#DejaVuSans-31" transform="translate(95.410156 0)"/>
      </g>
     </g>
    </g>
    <g id="ytick_4">
     <g id="line2d_17">
      <path d="M 47.961178 128.626001 
L 860.99976 128.626001 
" clip-path="url(#p307c92c44b)" style="fill: none; stroke: #b0b0b0; stroke-opacity: 0.18; stroke-width: 0.8; stroke-linecap: square"/>
     </g>
     <g id="line2d_18">
      <g>
       <use xlink:href="#maa05de120c" x="47.961178" y="128.626001" style="stroke: #000000; stroke-width: 0.8"/>
      </g>
     </g>
     <g id="text_10">
      <!-- 0.2 -->
      <g transform="translate(25.058053 132.42522) scale(0.1 -0.1)">
       <use xlink:href="#DejaVuSans-30"/>
       <use xlink:href="#DejaVuSans-2e" transform="translate(63.623047 0)"/>
       <use xlink:href="#DejaVuSans-32" transform="translate(95.410156 0)"/>
      </g>
     </g>
    </g>
    <g id="ytick_5">
     <g id="line2d_19">
      <path d="M 47.961178 56.857502 
L 860.99976 56.857502 
" clip-path="url(#p307c92c44b)" style="fill: none; stroke: #b0b0b0; stroke-opacity: 0.18; stroke-width: 0.8; stroke-linecap: square"/>
     </g>
     <g id="line2d_20">
      <g>
       <use xlink:href="#maa05de120c" x="47.961178" y="56.857502" style="stroke: #000000; stroke-width: 0.8"/>
      </g>
     </g>
     <g id="text_11">
      <!-- 0.3 -->
      <g transform="translate(25.058053 60.656721) scale(0.1 -0.1)">
       <defs>
        <path id="DejaVuSans-33" d="M 2597 2516 
Q 3050 2419 3304 2112 
Q 3559 1806 3559 1356 
Q 3559 666 3084 287 
Q 2609 -91 1734 -91 
Q 1441 -91 1130 -33 
Q 819 25 488 141 
L 488 750 
Q 750 597 1062 519 
Q 1375 441 1716 441 
Q 2309 441 2620 675 
Q 2931 909 2931 1356 
Q 2931 1769 2642 2001 
Q 2353 2234 1838 2234 
L 1294 2234 
L 1294 2753 
L 1863 2753 
Q 2328 2753 2575 2939 
Q 2822 3125 2822 3475 
Q 2822 3834 2567 4026 
Q 2313 4219 1838 4219 
Q 1578 4219 1281 4162 
Q 984 4106 628 3988 
L 628 4550 
Q 988 4650 1302 4700 
Q 1616 4750 1894 4750 
Q 2613 4750 3031 4423 
Q 3450 4097 3450 3541 
Q 3450 3153 3228 2886 
Q 3006 2619 2597 2516 
z
" transform="scale(0.015625)"/>
       </defs>
       <use xlink:href="#DejaVuSans-30"/>
       <use xlink:href="#DejaVuSans-2e" transform="translate(63.623047 0)"/>
       <use xlink:href="#DejaVuSans-33" transform="translate(95.410156 0)"/>
      </g>
     </g>
    </g>
    <g id="text_12">
     <!-- Loading -->
     <g transform="translate(10.598678 210.109063) rotate(-90) scale(0.1 -0.1)">
      <defs>
       <path id="DejaVuSans-4c" d="M 628 4666 
L 1259 4666 
L 1259 531 
L 3531 531 
L 3531 0 
L 628 0 
L 628 4666 
z
" transform="scale(0.015625)"/>
       <path id="DejaVuSans-67" d="M 2906 1791 
Q 2906 2416 2648 2759 
Q 2391 3103 1925 3103 
Q 1463 3103 1205 2759 
Q 947 2416 947 1791 
Q 947 1169 1205 825 
Q 1463 481 1925 481 
Q 2391 481 2648 825 
Q 2906 1169 2906 1791 
z
M 3481 434 
Q 3481 -459 3084 -895 
Q 2688 -1331 1869 -1331 
Q 1566 -1331 1297 -1286 
Q 1028 -1241 775 -1147 
L 775 -588 
Q 1028 -725 1275 -790 
Q 1522 -856 1778 -856 
Q 2344 -856 2625 -561 
Q 2906 -266 2906 331 
L 2906 616 
Q 2728 306 2450 153 
Q 2172 0 1784 0 
Q 1141 0 747 490 
Q 353 981 353 1791 
Q 353 2603 747 3093 
Q 1141 3584 1784 3584 
Q 2172 3584 2450 3431 
Q 2728 3278 2906 2969 
L 2906 3500 
L 3481 3500 
L 3481 434 
z
" transform="scale(0.015625)"/>
      </defs>
      <use xlink:href="#DejaVuSans-4c"/>
      <use xlink:href="#DejaVuSans-6f" transform="translate(53.962891 0)"/>
      <use xlink:href="#DejaVuSans-61" transform="translate(115.144531 0)"/>
      <use xlink:href="#DejaVuSans-64" transform="translate(176.423828 0)"/>
      <use xlink:href="#DejaVuSans-69" transform="translate(239.900391 0)"/>
      <use xlink:href="#DejaVuSans-6e" transform="translate(267.683594 0)"/>
      <use xlink:href="#DejaVuSans-67" transform="translate(331.0625 0)"/>
     </g>
    </g>
   </g>
   <g id="line2d_21">
    <path d="M 84.917477 272.162998 
L 85.605036 260.866515 
L 85.948815 260.196173 
L 86.292595 264.86572 
L 86.636374 267.045704 
L 86.980154 265.301678 
L 87.323933 265.913015 
L 87.667713 271.474097 
L 88.011492 272.626141 
L 89.042831 263.688524 
L 89.386611 262.412817 
L 89.73039 262.056678 
L 90.417949 264.58152 
L 91.105508 262.285028 
L 91.449288 263.041294 
L 91.793067 262.877677 
L 92.480626 257.575899 
L 92.824406 257.321481 
L 93.855744 258.990025 
L 94.199524 260.247589 
L 94.543303 262.32793 
L 94.887083 263.605207 
L 95.230863 263.825014 
L 95.574642 264.65792 
L 95.918422 264.10134 
L 96.262201 263.004502 
L 96.605981 262.721342 
L 97.29354 261.980967 
L 97.637319 261.991319 
L 97.981099 262.14773 
L 98.324878 262.76515 
L 98.668658 263.113557 
L 99.012437 263.112139 
L 99.699996 264.196104 
L 100.043776 264.246511 
L 100.387555 263.964779 
L 102.106453 266.877518 
L 102.450233 267.177808 
L 103.137792 267.424727 
L 103.481571 268.305871 
L 103.825351 268.596271 
L 104.16913 267.906405 
L 104.51291 268.322795 
L 104.856689 268.931204 
L 105.544248 269.490477 
L 106.231807 270.519075 
L 106.575587 270.446099 
L 106.919366 269.908368 
L 107.606926 269.599052 
L 107.950705 269.054879 
L 108.294485 269.19406 
L 108.638264 269.529439 
L 108.982044 269.58012 
L 109.325823 269.351968 
L 110.357162 270.461374 
L 110.700941 270.394005 
L 111.044721 270.561916 
L 111.3885 270.573839 
L 111.73228 270.258659 
L 112.419839 270.084317 
L 114.138737 270.045309 
L 114.482516 269.84669 
L 115.170075 269.870045 
L 115.857634 269.25578 
L 116.545193 268.773031 
L 117.576532 268.514827 
L 117.920311 268.559062 
L 118.264091 268.456723 
L 118.60787 268.480469 
L 119.639209 268.842163 
L 120.326768 268.993708 
L 121.701886 269.553792 
L 123.420784 270.204906 
L 124.108343 270.232155 
L 124.795902 270.391976 
L 125.82724 270.327098 
L 126.5148 269.950548 
L 126.858579 269.719863 
L 127.546138 269.542991 
L 128.577477 269.028167 
L 129.952595 268.521925 
L 131.671492 267.106804 
L 132.702831 265.637882 
L 133.39039 264.394702 
L 134.421729 261.890228 
L 135.109288 259.76724 
L 135.796847 257.092164 
L 136.484406 253.80837 
L 137.515744 247.598783 
L 138.547083 239.765903 
L 141.297319 216.881872 
L 141.984878 213.268459 
L 142.328658 212.126797 
L 142.672437 211.581908 
L 143.016217 211.696896 
L 143.359996 212.397768 
L 143.703776 213.747353 
L 144.391335 218.190675 
L 145.422674 227.732055 
L 147.485351 248.134345 
L 148.516689 255.73336 
L 149.204248 259.318279 
L 149.891807 261.752887 
L 150.579366 263.324678 
L 151.266926 264.390396 
L 151.954485 265.388532 
L 152.642044 266.908564 
L 153.329603 268.98179 
L 154.017162 271.873797 
L 155.0485 277.7662 
L 157.798737 295.121672 
L 158.830075 299.695805 
L 159.517634 301.645052 
L 159.861414 302.224391 
L 160.205193 302.505109 
L 160.548973 302.443855 
L 160.892752 302.067094 
L 161.580311 300.553708 
L 162.955429 295.942267 
L 164.330548 291.379686 
L 165.705666 287.403553 
L 167.768343 282.102971 
L 168.455902 280.729666 
L 168.799681 280.24112 
L 169.143461 279.974759 
L 169.48724 279.915781 
L 169.83102 280.04551 
L 170.1748 280.348844 
L 170.862359 281.403056 
L 172.237477 284.449413 
L 173.268815 286.421862 
L 173.956374 287.159033 
L 174.300154 287.285454 
L 174.643933 287.267172 
L 174.987713 287.090906 
L 175.331492 286.7402 
L 176.019051 285.518172 
L 176.706611 283.777008 
L 178.081729 279.432428 
L 179.113067 276.485146 
L 179.800626 275.124993 
L 180.144406 274.773116 
L 180.488185 274.686061 
L 180.831965 274.8771 
L 181.175744 275.397229 
L 181.519524 276.263056 
L 182.207083 278.886226 
L 184.26976 288.453341 
L 184.61354 289.311367 
L 184.957319 289.794072 
L 185.301099 289.895097 
L 185.644878 289.650022 
L 185.988658 289.058586 
L 186.676217 287.057823 
L 188.395114 281.098548 
L 188.738894 280.401989 
L 189.082674 279.979015 
L 189.426453 279.815587 
L 189.770233 279.859974 
L 191.145351 280.458787 
L 191.48913 280.351054 
L 191.83291 280.059809 
L 192.520469 278.888225 
L 193.551807 276.326875 
L 195.270705 272.041532 
L 197.333382 267.709305 
L 198.020941 265.483332 
L 198.7085 261.84476 
L 199.396059 255.781203 
L 200.083618 245.897837 
L 200.771177 230.908973 
L 201.458737 210.443957 
L 203.521414 138.959943 
L 204.208973 125.55874 
L 204.552752 122.843202 
L 204.896532 122.970141 
L 205.240311 125.871087 
L 205.584091 131.331653 
L 206.27165 148.633607 
L 207.302988 184.36669 
L 209.365666 259.930249 
L 210.397004 291.462592 
L 211.428343 316.436959 
L 212.115902 329.015646 
L 212.803461 338.111844 
L 213.49102 343.87922 
L 213.8348 345.601612 
L 214.178579 346.627615 
L 214.522359 346.983276 
L 214.866138 346.743631 
L 215.209918 345.975026 
L 215.897477 343.11355 
L 216.585036 338.876899 
L 217.960154 328.480528 
L 221.05417 303.929039 
L 222.429288 295.211291 
L 223.460626 289.756265 
L 224.491965 285.354991 
L 225.523303 281.966349 
L 226.554642 279.180473 
L 227.242201 277.75634 
L 228.27354 276.224974 
L 228.961099 275.451519 
L 230.679996 274.0739 
L 231.711335 273.505228 
L 233.086453 273.006779 
L 234.805351 272.582212 
L 236.524248 272.34556 
L 238.930705 272.304439 
L 240.993382 272.1113 
L 245.118737 271.946504 
L 247.525193 271.958635 
L 248.900311 271.885271 
L 252.338107 272.039381 
L 257.15102 271.874283 
L 261.276374 272.166219 
L 263.682831 271.97282 
L 266.433067 271.976091 
L 268.495744 272.065479 
L 269.870862 272.179903 
L 270.902201 272.038533 
L 272.277319 271.855245 
L 276.058894 272.002647 
L 278.80913 271.939458 
L 283.278264 271.793714 
L 285.340941 271.616881 
L 287.403618 271.448115 
L 291.185193 270.818853 
L 292.216532 270.78323 
L 293.59165 271.113524 
L 294.622988 271.456709 
L 295.654327 271.694925 
L 297.029445 271.73672 
L 298.748343 271.986941 
L 299.435902 272.171937 
L 301.842359 271.971258 
L 302.529918 272.108338 
L 303.905036 272.568626 
L 305.280154 272.598886 
L 306.311492 272.601447 
L 306.655272 272.664653 
L 307.686611 272.304584 
L 308.717949 272.059656 
L 309.405508 272.046502 
L 310.093067 272.333735 
L 310.436847 272.608822 
L 311.811965 272.687425 
L 313.530862 272.58171 
L 315.937319 272.424065 
L 317.656217 272.497327 
L 319.718894 272.594668 
L 321.094012 272.398906 
L 322.46913 272.254215 
L 325.219366 272.24759 
L 326.594485 272.34398 
L 329.000941 271.884472 
L 330.376059 271.995452 
L 332.782516 271.612603 
L 335.532752 271.817611 
L 337.595429 271.863316 
L 339.658107 272.149383 
L 341.377004 272.05255 
L 343.439681 272.238784 
L 347.221256 272.078388 
L 352.03417 271.172748 
L 355.471965 269.596215 
L 357.190862 269.173202 
L 358.222201 269.214949 
L 359.25354 269.431431 
L 360.972437 270.083705 
L 362.691335 270.749283 
L 364.410233 271.212458 
L 365.785351 271.359523 
L 368.535587 271.458507 
L 373.004721 271.793992 
L 377.473855 272.640499 
L 379.192752 272.916228 
L 384.349445 273.015115 
L 391.225036 272.833217 
L 393.287713 272.736931 
L 397.756847 272.430923 
L 400.507083 272.266831 
L 403.257319 271.885867 
L 408.414012 271.168176 
L 411.164248 270.770373 
L 414.258264 270.334261 
L 417.0085 270.060399 
L 421.821414 269.627657 
L 424.915429 269.314788 
L 426.290547 269.364056 
L 428.697004 269.387966 
L 431.79102 269.032336 
L 432.822359 268.744505 
L 433.853697 268.184852 
L 434.885036 267.342756 
L 435.916374 266.227129 
L 436.947713 264.782071 
L 438.322831 262.443294 
L 439.697949 260.162443 
L 440.729288 258.911726 
L 441.416847 258.450987 
L 442.104406 258.325966 
L 442.791965 258.50584 
L 443.479524 258.980904 
L 444.510862 260.216284 
L 445.885981 262.30713 
L 447.261099 264.342045 
L 448.292437 265.572363 
L 449.323776 266.377631 
L 450.355114 266.817997 
L 451.386453 266.97698 
L 453.105351 266.905128 
L 455.168028 266.874494 
L 456.543146 267.084688 
L 458.262044 267.561411 
L 460.6685 268.512096 
L 463.418736 269.672783 
L 465.481414 270.306683 
L 467.544091 270.757376 
L 470.294327 271.416595 
L 477.169918 273.75077 
L 479.576374 274.530712 
L 482.67039 275.293648 
L 485.420626 275.834682 
L 488.514642 276.139675 
L 492.296217 276.368199 
L 496.077792 276.230667 
L 503.640941 275.417375 
L 509.485193 275.187905 
L 511.54787 275.164426 
L 513.610547 275.028468 
L 515.673225 274.833218 
L 518.76724 274.546411 
L 523.236374 274.076264 
L 525.642831 274.022829 
L 529.080626 273.643653 
L 532.862201 272.859946 
L 534.581099 272.408297 
L 535.956217 272.135051 
L 537.675114 271.520338 
L 539.737792 270.786308 
L 543.863146 269.643433 
L 545.238264 269.771328 
L 549.019839 270.33807 
L 551.426296 271.018567 
L 552.801414 271.07048 
L 555.20787 270.854678 
L 556.239209 270.74779 
L 557.958107 270.848325 
L 559.333225 271.052585 
L 561.052122 271.109495 
L 563.114799 270.780882 
L 564.489918 270.673311 
L 567.240154 270.793173 
L 568.959051 271.010806 
L 571.365508 271.520784 
L 575.147083 272.000581 
L 577.55354 272.520378 
L 580.303776 272.94281 
L 583.054012 273.192164 
L 587.523146 272.847941 
L 591.304721 272.417687 
L 591.99228 272.379733 
L 592.679839 271.141392 
L 593.367398 270.358486 
L 594.054957 270.04999 
L 594.398736 270.073848 
L 594.742516 270.210528 
L 595.430075 270.851498 
L 595.773855 271.359091 
L 597.492752 270.496793 
L 599.555429 269.213678 
L 604.368343 265.648974 
L 605.055902 265.434111 
L 605.743461 265.395254 
L 606.43102 265.501551 
L 607.118579 265.85545 
L 607.806138 266.584221 
L 608.493697 267.797712 
L 609.181256 269.518843 
L 610.212595 272.815635 
L 613.30661 283.293848 
L 613.99417 284.972038 
L 614.681729 286.131802 
L 615.369288 286.715271 
L 615.713067 286.787756 
L 616.056847 286.711947 
L 616.400626 286.506235 
L 617.088185 285.70227 
L 617.775744 284.443634 
L 618.807083 281.978616 
L 621.21354 275.832506 
L 622.588658 273.082944 
L 623.963776 270.942077 
L 625.338894 269.253394 
L 626.714012 267.970086 
L 628.43291 266.734815 
L 629.808028 265.983397 
L 631.526925 265.313076 
L 633.245823 264.894621 
L 635.65228 264.526373 
L 637.371177 264.496925 
L 643.559209 264.896813 
L 645.965666 265.375027 
L 649.74724 266.488271 
L 653.185036 267.647497 
L 657.997949 269.268412 
L 660.748185 269.723562 
L 663.842201 270.156611 
L 667.623776 270.646159 
L 670.717792 271.48041 
L 674.843146 272.836031 
L 676.905823 273.047036 
L 681.718736 273.059163 
L 691.344563 272.788002 
L 693.75102 272.834207 
L 696.501256 272.694104 
L 698.220154 272.580983 
L 699.939051 272.434144 
L 703.033067 272.52331 
L 708.53354 272.883416 
L 709.908658 273.252117 
L 711.283776 273.608961 
L 713.690232 274.112216 
L 715.40913 274.557714 
L 716.440469 274.697221 
L 718.503146 274.667275 
L 724.003618 274.106238 
L 726.066295 273.95802 
L 728.816532 273.398476 
L 730.535429 272.723055 
L 732.254327 272.016721 
L 733.973225 271.333648 
L 735.692122 270.3807 
L 737.41102 269.528755 
L 739.129918 268.937278 
L 740.161256 268.75213 
L 741.880154 268.798615 
L 743.599051 269.100787 
L 745.661729 269.608192 
L 749.099524 270.577433 
L 750.474642 270.945314 
L 751.84976 271.060642 
L 754.256217 271.104791 
L 755.975114 271.57069 
L 756.662673 271.98826 
L 757.694012 272.977489 
L 759.06913 274.500923 
L 759.756689 274.926425 
L 760.444248 275.122392 
L 761.131807 275.07625 
L 761.819366 274.82301 
L 767.319839 272.072898 
L 768.007398 271.949497 
L 768.694957 271.97761 
L 769.382516 272.166302 
L 770.757634 272.94743 
L 771.788973 273.767768 
L 772.820311 274.64583 
L 773.50787 274.974 
L 774.195429 274.98889 
L 775.226768 274.645828 
L 776.601886 274.168781 
L 778.320784 274.075435 
L 780.383461 274.15766 
L 781.758579 274.176869 
L 783.133697 274.281605 
L 790.009288 274.560055 
L 795.16598 275.389457 
L 801.010232 275.855891 
L 805.135587 276.517487 
L 807.885823 276.387273 
L 808.917162 276.444037 
L 810.636059 276.582336 
L 812.354957 277.079414 
L 814.417634 276.928386 
L 815.792752 277.121556 
L 817.16787 276.41017 
L 818.199209 276.368619 
L 820.261886 275.767971 
L 820.605666 275.744146 
L 821.637004 276.133512 
L 822.324563 275.886893 
L 822.668343 275.387377 
L 823.699681 273.090499 
L 824.043461 272.162998 
L 824.043461 272.162998 
" clip-path="url(#p307c92c44b)" style="fill: none; stroke: #1d4ed8; stroke-width: 1.5; stroke-linecap: square"/>
   </g>
   <g id="line2d_22">
    <path d="M 84.917477 272.162998 
L 85.605036 121.008355 
L 86.292595 33.867353 
L 86.636374 33.778599 
L 86.980154 63.795954 
L 87.323933 114.816888 
L 88.699052 236.340956 
L 89.386611 252.162835 
L 89.73039 252.411183 
L 90.07417 239.651156 
L 90.417949 220.625378 
L 90.761729 219.821579 
L 91.105508 220.423848 
L 91.449288 207.832007 
L 91.793067 202.624119 
L 92.136847 201.502707 
L 92.480626 202.39428 
L 92.824406 205.743242 
L 93.168185 203.454339 
L 93.511965 204.08349 
L 93.855744 208.024206 
L 94.199524 207.406634 
L 94.543303 206.545269 
L 95.230863 208.765192 
L 95.574642 207.023714 
L 95.918422 208.722109 
L 96.605981 217.607625 
L 96.94976 218.103062 
L 97.29354 219.517202 
L 97.637319 221.604121 
L 97.981099 221.783898 
L 98.324878 222.195499 
L 98.668658 225.204122 
L 99.012437 230.131364 
L 99.356217 233.02986 
L 100.387555 237.845703 
L 100.731335 236.335047 
L 101.075114 238.837842 
L 101.418894 242.856507 
L 101.762674 242.810388 
L 102.450233 245.520996 
L 102.794012 245.91252 
L 103.137792 246.655975 
L 103.825351 246.762806 
L 104.16913 246.565959 
L 104.51291 244.715263 
L 104.856689 247.299423 
L 105.200469 250.833188 
L 105.544248 249.436542 
L 105.888028 249.169615 
L 106.231807 248.252348 
L 106.575587 246.913059 
L 106.919366 247.746837 
L 107.263146 248.039209 
L 107.606926 248.735099 
L 107.950705 250.217866 
L 108.294485 250.452988 
L 108.982044 254.548508 
L 109.669603 255.232115 
L 110.013382 254.514151 
L 110.357162 253.278582 
L 110.700941 253.530687 
L 111.044721 253.271278 
L 111.3885 253.276348 
L 112.419839 256.190892 
L 112.763618 256.676886 
L 113.107398 256.816378 
L 113.451177 257.566962 
L 113.794957 257.802219 
L 114.138737 257.596244 
L 114.482516 257.982054 
L 115.170075 256.673573 
L 115.513855 256.719035 
L 116.201414 257.730656 
L 116.888973 259.162888 
L 117.232752 259.934007 
L 117.576532 260.175169 
L 118.264091 259.838769 
L 118.60787 259.780552 
L 119.295429 259.966477 
L 119.639209 259.555179 
L 119.982989 259.49591 
L 121.701886 261.47965 
L 122.045666 261.148156 
L 122.389445 261.291055 
L 123.077004 261.995409 
L 123.420784 262.195375 
L 124.108343 262.852311 
L 125.139681 262.718987 
L 125.82724 262.871615 
L 126.17102 263.163206 
L 126.858579 264.087159 
L 127.546138 264.199639 
L 128.577477 264.71888 
L 128.921256 264.81256 
L 129.265036 264.685074 
L 129.608815 264.415546 
L 129.952595 264.360099 
L 130.640154 264.721154 
L 131.327713 264.726925 
L 131.671492 264.956514 
L 132.359051 265.73358 
L 133.046611 266.459247 
L 133.73417 266.33995 
L 134.077949 266.416904 
L 135.453067 266.304266 
L 136.140626 267.066923 
L 136.828185 267.838624 
L 138.890863 270.139938 
L 139.234642 270.328379 
L 139.922201 271.65636 
L 141.641099 275.976034 
L 143.016217 279.399119 
L 143.703776 280.533027 
L 144.391335 281.24443 
L 144.735114 281.196926 
L 145.422674 280.667351 
L 146.454012 278.915931 
L 148.860469 273.50279 
L 149.548028 271.920876 
L 150.235587 270.969694 
L 151.266926 269.851104 
L 151.954485 269.565198 
L 152.642044 269.193975 
L 152.985823 269.137594 
L 154.017162 268.544148 
L 154.360941 268.273729 
L 154.704721 267.833252 
L 155.736059 265.491645 
L 156.423618 264.057765 
L 158.486296 261.821758 
L 159.517634 261.254179 
L 159.861414 261.381051 
L 160.205193 261.685428 
L 160.892752 262.75533 
L 161.924091 264.395917 
L 162.61165 264.913699 
L 163.642988 265.006623 
L 164.330548 264.978349 
L 164.674327 265.083944 
L 165.018107 265.330531 
L 165.705666 266.243971 
L 167.768343 269.601096 
L 168.455902 270.009363 
L 169.143461 270.120876 
L 170.518579 269.685745 
L 171.549918 269.13047 
L 172.581256 268.798433 
L 174.643933 268.434106 
L 175.331492 268.288187 
L 176.019051 268.464307 
L 176.706611 268.866397 
L 178.425508 269.966597 
L 180.488185 270.715323 
L 181.175744 270.692867 
L 183.238422 269.868205 
L 184.26976 269.952096 
L 185.301099 270.245387 
L 186.676217 270.921468 
L 188.395114 272.101755 
L 189.426453 272.139414 
L 190.801571 272.114778 
L 191.48913 272.342495 
L 192.176689 272.805244 
L 193.551807 274.213793 
L 195.958264 276.963777 
L 197.333382 278.818548 
L 198.020941 279.503003 
L 198.7085 279.658161 
L 199.05228 279.560204 
L 200.427398 278.576112 
L 200.771177 278.73803 
L 201.114957 279.181348 
L 201.458737 279.968074 
L 202.146296 282.485888 
L 203.177634 286.501912 
L 203.521414 287.12676 
L 203.865193 287.131936 
L 204.208973 286.496998 
L 204.552752 285.223617 
L 205.240311 281.177029 
L 206.27165 274.28501 
L 206.615429 272.626873 
L 206.959209 271.516658 
L 207.302988 270.977451 
L 207.646768 271.048138 
L 207.990548 271.729958 
L 208.334327 272.926169 
L 209.021886 276.455917 
L 211.428343 291.203973 
L 212.115902 294.005836 
L 212.803461 295.902226 
L 213.14724 296.410262 
L 213.49102 296.665254 
L 213.8348 296.688109 
L 214.178579 296.442144 
L 214.522359 295.85115 
L 215.209918 293.758015 
L 216.928815 287.11613 
L 219.679051 274.846732 
L 221.741729 267.908566 
L 222.429288 266.767532 
L 223.116847 266.269059 
L 224.148185 266.064599 
L 225.523303 266.210185 
L 227.242201 267.154221 
L 227.92976 266.864914 
L 229.304878 267.034783 
L 229.992437 267.312708 
L 230.679996 268.083106 
L 231.023776 268.4574 
L 232.055114 268.937985 
L 235.14913 270.263721 
L 235.836689 270.343851 
L 236.868028 270.275612 
L 237.555587 270.082404 
L 238.586925 270.044214 
L 240.649603 270.480444 
L 241.680941 270.479096 
L 243.056059 270.560734 
L 245.118737 270.033698 
L 245.806296 269.716877 
L 247.525193 269.260291 
L 248.212752 269.262518 
L 250.619209 268.924823 
L 251.306768 268.68681 
L 251.994327 268.685348 
L 252.681886 268.509482 
L 253.025666 268.499098 
L 253.369445 268.364904 
L 255.432122 268.657442 
L 256.119681 269.086113 
L 256.80724 269.204332 
L 257.15102 269.117923 
L 257.838579 269.170348 
L 258.869918 269.011984 
L 259.213697 269.051307 
L 260.588815 269.626636 
L 265.401729 270.487768 
L 267.120626 270.699227 
L 268.151965 270.987543 
L 268.839524 270.922398 
L 269.527083 271.102855 
L 270.214642 270.99537 
L 272.621099 271.540031 
L 273.308658 271.569141 
L 273.996217 271.308489 
L 275.715114 271.174614 
L 276.402674 271.294479 
L 277.090233 271.366446 
L 278.121571 271.555267 
L 278.80913 271.314478 
L 279.15291 271.344246 
L 280.184248 271.651767 
L 280.528028 271.618627 
L 280.871807 271.69903 
L 281.903146 272.231754 
L 282.590705 272.271816 
L 285.684721 271.962583 
L 287.747398 272.630139 
L 288.434957 273.131765 
L 289.122516 273.313662 
L 290.153855 273.386799 
L 290.841414 273.540935 
L 292.216532 274.112503 
L 292.904091 273.947289 
L 293.24787 273.76918 
L 294.622988 272.270302 
L 295.310548 271.677265 
L 296.341886 271.462229 
L 297.717004 271.765479 
L 298.404563 271.388104 
L 299.092122 270.619255 
L 299.779681 270.360661 
L 300.46724 270.467389 
L 301.154799 270.584424 
L 303.561256 270.321915 
L 304.592595 270.349923 
L 305.280154 270.58364 
L 305.623933 270.636096 
L 305.967713 270.868165 
L 306.655272 270.799633 
L 307.342831 265.647644 
L 308.03039 262.33 
L 308.37417 261.488718 
L 308.717949 261.463878 
L 309.061729 262.057492 
L 309.405508 263.27907 
L 310.093067 267.518263 
L 310.436847 270.362854 
L 311.468185 270.458053 
L 312.843303 270.890415 
L 314.905981 271.749115 
L 315.937319 271.579625 
L 316.624878 271.532942 
L 317.312437 271.666425 
L 318.687555 272.149083 
L 319.375114 271.857652 
L 320.062674 271.326125 
L 320.406453 271.291783 
L 320.750233 271.377814 
L 322.46913 272.616846 
L 323.156689 272.642472 
L 323.844248 272.38565 
L 324.531807 272.117862 
L 325.219366 272.120914 
L 326.250705 272.367822 
L 326.938264 272.723109 
L 328.313382 273.642027 
L 329.000941 273.678403 
L 330.03228 273.513859 
L 331.063618 273.631384 
L 333.126296 274.342612 
L 334.157634 274.256585 
L 335.532752 273.906292 
L 336.564091 274.089141 
L 337.595429 274.040281 
L 338.282988 273.830875 
L 339.314327 273.154241 
L 340.689445 272.902364 
L 341.720784 272.911772 
L 342.064563 272.949952 
L 343.095902 272.528542 
L 344.47102 271.673512 
L 345.158579 271.195468 
L 345.846138 271.045915 
L 346.877477 271.211362 
L 348.252595 271.576713 
L 349.283933 271.52986 
L 349.971492 271.509879 
L 351.69039 271.962375 
L 352.377949 272.525523 
L 353.409288 273.648472 
L 355.471965 275.227367 
L 356.847083 276.012636 
L 357.534642 276.110713 
L 358.222201 275.762139 
L 359.25354 275.12744 
L 360.284878 274.114504 
L 362.691335 271.001193 
L 363.378894 270.504452 
L 364.410233 270.117498 
L 365.097792 270.042502 
L 366.47291 270.144984 
L 371.973382 271.229949 
L 373.3485 271.191401 
L 375.411177 271.213456 
L 376.786296 270.999905 
L 378.848973 271.183523 
L 379.880311 271.126645 
L 380.91165 271.054247 
L 381.942988 270.959393 
L 383.318107 270.713721 
L 384.693225 270.859036 
L 388.13102 271.499041 
L 389.849918 271.357697 
L 391.912595 271.367116 
L 392.943933 271.565444 
L 395.69417 272.190508 
L 399.131965 272.456715 
L 400.507083 272.704479 
L 402.56976 272.682749 
L 403.601099 272.962828 
L 404.976217 273.622518 
L 407.382673 274.518569 
L 408.414012 274.874008 
L 409.445351 275.173689 
L 412.539366 276.665335 
L 413.226925 276.75863 
L 414.602044 277.199491 
L 415.977162 277.228915 
L 416.664721 276.948497 
L 418.039839 276.084309 
L 420.102516 275.166405 
L 422.508973 274.542237 
L 424.915429 274.485832 
L 426.634327 274.899983 
L 428.353225 275.570889 
L 431.79102 276.902598 
L 432.822359 277.688158 
L 433.509918 278.517799 
L 434.541256 280.148928 
L 436.603933 284.33585 
L 439.01039 289.523472 
L 439.697949 290.228924 
L 440.385508 290.459052 
L 440.729288 290.399194 
L 441.416847 289.871647 
L 442.104406 288.922395 
L 442.791965 287.554754 
L 443.823303 284.788317 
L 445.198422 280.189266 
L 448.292437 268.9831 
L 449.667555 265.315985 
L 450.698894 263.279637 
L 451.730233 261.65037 
L 452.761571 260.568199 
L 453.44913 260.082106 
L 454.136689 259.878117 
L 455.168028 259.909434 
L 455.855587 260.057248 
L 457.918264 261.111308 
L 459.980941 262.771142 
L 463.418736 266.040276 
L 464.793855 266.902724 
L 465.825193 267.420316 
L 471.325666 268.860422 
L 473.388343 269.156275 
L 475.794799 269.906533 
L 487.139524 271.152559 
L 489.545981 271.033021 
L 491.952437 271.181368 
L 494.358894 271.242232 
L 495.390233 271.38981 
L 500.546925 271.412026 
L 502.609603 271.028609 
L 503.297162 270.917576 
L 504.3285 270.917724 
L 505.703618 270.78587 
L 507.422516 270.514795 
L 508.453855 270.660449 
L 509.485193 270.785696 
L 511.204091 270.910123 
L 515.673225 270.905033 
L 516.704563 270.797207 
L 518.423461 271.011254 
L 519.798579 271.12787 
L 521.517477 271.167468 
L 523.923933 271.340531 
L 526.67417 271.252599 
L 527.705508 271.389216 
L 530.455744 272.072418 
L 531.830862 272.200628 
L 533.205981 272.45283 
L 539.737792 273.544555 
L 542.144248 274.301601 
L 543.519366 274.86342 
L 544.550705 274.980255 
L 546.269603 274.893456 
L 548.33228 275.590236 
L 549.019839 275.485997 
L 550.051177 275.170239 
L 550.738736 275.209182 
L 553.145193 275.665728 
L 554.176532 275.393251 
L 558.301886 273.831247 
L 560.364563 273.095469 
L 561.052122 273.15017 
L 561.739681 273.43688 
L 564.833697 275.339375 
L 565.521256 275.410231 
L 566.896374 275.094283 
L 568.271492 274.991194 
L 568.959051 274.958181 
L 569.64661 274.982241 
L 570.33417 274.799098 
L 571.021729 274.638662 
L 573.084406 274.553597 
L 574.803303 274.889399 
L 575.834642 274.681129 
L 577.20976 274.185912 
L 578.241099 273.971497 
L 579.272437 274.12557 
L 581.335114 274.494393 
L 584.42913 273.705162 
L 585.804248 273.238675 
L 586.491807 273.324306 
L 587.523146 273.72611 
L 588.554484 274.393394 
L 589.242044 274.526428 
L 591.6485 274.503154 
L 591.99228 274.681695 
L 592.679839 282.222849 
L 593.367398 286.450813 
L 593.711177 287.38792 
L 594.054957 287.515142 
L 594.398736 286.769291 
L 594.742516 285.206398 
L 595.086295 282.814956 
L 595.773855 275.589468 
L 597.148973 275.667306 
L 597.836532 276.01938 
L 600.586768 277.87394 
L 601.961886 278.326162 
L 602.649445 278.355167 
L 603.337004 278.121789 
L 604.024563 277.665257 
L 604.712122 276.920395 
L 605.399681 275.777468 
L 606.08724 274.164436 
L 606.774799 271.957834 
L 607.462358 269.1331 
L 608.149918 265.591786 
L 609.181256 258.80726 
L 610.556374 247.950452 
L 612.619051 231.384861 
L 613.30661 227.118661 
L 613.99417 224.138284 
L 614.337949 223.209737 
L 614.681729 222.62045 
L 615.025508 222.436134 
L 615.369288 222.601187 
L 615.713067 223.117807 
L 616.400626 225.124948 
L 617.088185 228.160728 
L 618.119524 234.025016 
L 620.86976 250.87991 
L 621.901099 255.647129 
L 622.932437 259.525898 
L 623.963776 262.763519 
L 625.338894 266.308145 
L 627.057792 269.97909 
L 628.43291 272.465431 
L 630.151807 275.18914 
L 631.526925 276.929925 
L 632.902044 278.270339 
L 634.277162 279.274795 
L 636.339839 280.429159 
L 637.714957 280.803234 
L 640.121414 281.250425 
L 643.902988 281.277351 
L 648.028343 280.811446 
L 650.778579 280.496969 
L 653.185036 280.173179 
L 655.591492 279.64596 
L 659.029288 279.408524 
L 660.404406 279.419263 
L 662.123303 279.210439 
L 663.498421 279.002516 
L 665.217319 278.76056 
L 667.279996 278.310182 
L 668.998894 278.489903 
L 670.717792 278.837016 
L 672.436689 279.222098 
L 673.811807 279.335141 
L 675.186925 279.533767 
L 676.562044 279.465497 
L 677.593382 279.245506 
L 684.468973 277.409371 
L 686.875429 276.805362 
L 688.938106 276.404231 
L 690.657004 276.368415 
L 694.094799 275.610571 
L 694.782358 275.491103 
L 695.813697 274.946311 
L 697.532595 273.964175 
L 698.220154 273.729447 
L 704.064406 272.605381 
L 706.127083 271.870515 
L 707.158421 271.845065 
L 708.18976 271.973116 
L 709.221099 272.193697 
L 710.596217 272.392427 
L 712.658894 272.841023 
L 715.065351 273.108861 
L 717.471807 273.61825 
L 722.6285 272.831249 
L 725.034957 273.092306 
L 726.410075 273.481356 
L 727.097634 273.641743 
L 728.128973 273.551423 
L 729.504091 273.395309 
L 731.910547 273.38505 
L 733.973225 273.073092 
L 736.035902 273.208656 
L 739.473697 273.634484 
L 740.505036 273.756064 
L 741.536374 273.639816 
L 742.223933 273.56325 
L 743.255272 273.191342 
L 747.724406 271.073088 
L 748.755744 271.100427 
L 749.787083 271.344137 
L 750.818421 271.837696 
L 751.50598 272.320138 
L 752.881099 273.472295 
L 753.568658 273.64419 
L 754.256217 273.406791 
L 755.287555 272.464119 
L 756.318894 271.497136 
L 757.006453 270.523938 
L 758.037792 268.451394 
L 759.06913 266.443584 
L 759.756689 265.73941 
L 760.100469 265.591519 
L 760.788028 265.673333 
L 762.163146 266.493269 
L 763.538264 267.565692 
L 765.600941 268.198023 
L 766.2885 268.330728 
L 766.63228 268.511604 
L 767.663618 269.325881 
L 768.694957 269.689035 
L 769.038736 269.680259 
L 769.726295 269.283155 
L 771.101414 267.917335 
L 772.476532 266.308595 
L 773.50787 265.411875 
L 774.195429 265.093147 
L 774.882988 265.19128 
L 776.258106 265.860181 
L 777.977004 266.846466 
L 779.008343 267.071373 
L 779.695902 266.991439 
L 781.07102 266.693346 
L 782.446138 266.373069 
L 785.196374 266.340689 
L 787.602831 265.448795 
L 788.634169 265.077027 
L 789.665508 265.133063 
L 790.696847 265.194769 
L 792.415744 264.818822 
L 794.478421 264.153619 
L 795.16598 264.003253 
L 797.572437 263.90883 
L 798.259996 263.43764 
L 798.947555 262.745623 
L 799.291335 262.631932 
L 799.978894 262.808745 
L 800.666453 263.046153 
L 801.354012 263.156149 
L 802.041571 263.00488 
L 802.72913 262.535136 
L 803.416689 262.094588 
L 803.760469 262.008148 
L 804.791807 262.138701 
L 805.823146 261.987982 
L 807.542043 262.27726 
L 808.229603 262.525829 
L 808.917162 262.451393 
L 810.29228 262.079827 
L 810.979839 261.721933 
L 813.386295 262.2191 
L 814.073854 262.675993 
L 815.105193 263.562737 
L 815.448973 263.623748 
L 815.792752 263.467261 
L 816.480311 263.465483 
L 817.855429 262.914641 
L 818.199209 263.032555 
L 818.542988 263.360973 
L 819.230547 264.465406 
L 819.574327 264.807931 
L 820.261886 265.665379 
L 821.637004 265.395339 
L 822.324563 265.212436 
L 822.668343 265.868585 
L 823.012122 266.934805 
L 823.699681 270.328901 
L 824.043461 272.162998 
L 824.043461 272.162998 
" clip-path="url(#p307c92c44b)" style="fill: none; stroke: #c2410c; stroke-width: 1.5; stroke-linecap: square"/>
   </g>
   <g id="line2d_23">
    <path d="M 47.961178 272.162998 
L 860.99976 272.162998 
" clip-path="url(#p307c92c44b)" style="fill: none; stroke: #111827; stroke-opacity: 0.5; stroke-width: 0.8; stroke-linecap: square"/>
   </g>
   <g id="patch_3">
    <path d="M 47.961178 362.64351 
L 47.961178 18.118365 
" style="fill: none; stroke: #000000; stroke-width: 0.8; stroke-linejoin: miter; stroke-linecap: square"/>
   </g>
   <g id="patch_4">
    <path d="M 860.99976 362.64351 
L 860.99976 18.118365 
" style="fill: none; stroke: #000000; stroke-width: 0.8; stroke-linejoin: miter; stroke-linecap: square"/>
   </g>
   <g id="patch_5">
    <path d="M 47.961177 362.64351 
L 860.99976 362.64351 
" style="fill: none; stroke: #000000; stroke-width: 0.8; stroke-linejoin: miter; stroke-linecap: square"/>
   </g>
   <g id="patch_6">
    <path d="M 47.961177 18.118365 
L 860.99976 18.118365 
" style="fill: none; stroke: #000000; stroke-width: 0.8; stroke-linejoin: miter; stroke-linecap: square"/>
   </g>
   <g id="text_13">
    <!-- Loadings da PCA por banda -->
    <g transform="translate(371.934531 12.118365) scale(0.12 -0.12)">
     <defs>
      <path id="DejaVuSans-73" d="M 2834 3397 
L 2834 2853 
Q 2591 2978 2328 3040 
Q 2066 3103 1784 3103 
Q 1356 3103 1142 2972 
Q 928 2841 928 2578 
Q 928 2378 1081 2264 
Q 1234 2150 1697 2047 
L 1894 2003 
Q 2506 1872 2764 1633 
Q 3022 1394 3022 966 
Q 3022 478 2636 193 
Q 2250 -91 1575 -91 
Q 1294 -91 989 -36 
Q 684 19 347 128 
L 347 722 
Q 666 556 975 473 
Q 1284 391 1588 391 
Q 1994 391 2212 530 
Q 2431 669 2431 922 
Q 2431 1156 2273 1281 
Q 2116 1406 1581 1522 
L 1381 1569 
Q 847 1681 609 1914 
Q 372 2147 372 2553 
Q 372 3047 722 3315 
Q 1072 3584 1716 3584 
Q 2034 3584 2315 3537 
Q 2597 3491 2834 3397 
z
" transform="scale(0.015625)"/>
      <path id="DejaVuSans-50" d="M 1259 4147 
L 1259 2394 
L 2053 2394 
Q 2494 2394 2734 2622 
Q 2975 2850 2975 3272 
Q 2975 3691 2734 3919 
Q 2494 4147 2053 4147 
L 1259 4147 
z
M 628 4666 
L 2053 4666 
Q 2838 4666 3239 4311 
Q 3641 3956 3641 3272 
Q 3641 2581 3239 2228 
Q 2838 1875 2053 1875 
L 1259 1875 
L 1259 0 
L 628 0 
L 628 4666 
z
" transform="scale(0.015625)"/>
      <path id="DejaVuSans-41" d="M 2188 4044 
L 1331 1722 
L 3047 1722 
L 2188 4044 
z
M 1831 4666 
L 2547 4666 
L 4325 0 
L 3669 0 
L 3244 1197 
L 1141 1197 
L 716 0 
L 50 0 
L 1831 4666 
z
" transform="scale(0.015625)"/>
      <path id="DejaVuSans-62" d="M 3116 1747 
Q 3116 2381 2855 2742 
Q 2594 3103 2138 3103 
Q 1681 3103 1420 2742 
Q 1159 2381 1159 1747 
Q 1159 1113 1420 752 
Q 1681 391 2138 391 
Q 2594 391 2855 752 
Q 3116 1113 3116 1747 
z
M 1159 2969 
Q 1341 3281 1617 3432 
Q 1894 3584 2278 3584 
Q 2916 3584 3314 3078 
Q 3713 2572 3713 1747 
Q 3713 922 3314 415 
Q 2916 -91 2278 -91 
Q 1894 -91 1617 61 
Q 1341 213 1159 525 
L 1159 0 
L 581 0 
L 581 4863 
L 1159 4863 
L 1159 2969 
z
" transform="scale(0.015625)"/>
     </defs>
     <use xlink:href="#DejaVuSans-4c"/>
     <use xlink:href="#DejaVuSans-6f" transform="translate(53.962891 0)"/>
     <use xlink:href="#DejaVuSans-61" transform="translate(115.144531 0)"/>
     <use xlink:href="#DejaVuSans-64" transform="translate(176.423828 0)"/>
     <use xlink:href="#DejaVuSans-69" transform="translate(239.900391 0)"/>
     <use xlink:href="#DejaVuSans-6e" transform="translate(267.683594 0)"/>
     <use xlink:href="#DejaVuSans-67" transform="translate(331.0625 0)"/>
     <use xlink:href="#DejaVuSans-73" transform="translate(394.539062 0)"/>
     <use xlink:href="#DejaVuSans-20" transform="translate(446.638672 0)"/>
     <use xlink:href="#DejaVuSans-64" transform="translate(478.425781 0)"/>
     <use xlink:href="#DejaVuSans-61" transform="translate(541.902344 0)"/>
     <use xlink:href="#DejaVuSans-20" transform="translate(603.181641 0)"/>
     <use xlink:href="#DejaVuSans-50" transform="translate(634.96875 0)"/>
     <use xlink:href="#DejaVuSans-43" transform="translate(695.271484 0)"/>
     <use xlink:href="#DejaVuSans-41" transform="translate(765.095703 0)"/>
     <use xlink:href="#DejaVuSans-20" transform="translate(833.503906 0)"/>
     <use xlink:href="#DejaVuSans-70" transform="translate(865.291016 0)"/>
     <use xlink:href="#DejaVuSans-6f" transform="translate(928.767578 0)"/>
     <use xlink:href="#DejaVuSans-72" transform="translate(989.949219 0)"/>
     <use xlink:href="#DejaVuSans-20" transform="translate(1031.0625 0)"/>
     <use xlink:href="#DejaVuSans-62" transform="translate(1062.849609 0)"/>
     <use xlink:href="#DejaVuSans-61" transform="translate(1126.326172 0)"/>
     <use xlink:href="#DejaVuSans-6e" transform="translate(1187.605469 0)"/>
     <use xlink:href="#DejaVuSans-64" transform="translate(1250.984375 0)"/>
     <use xlink:href="#DejaVuSans-61" transform="translate(1314.460938 0)"/>
    </g>
   </g>
   <g id="legend_1">
    <g id="patch_7">
     <path d="M 802.62476 55.474615 
L 853.99976 55.474615 
Q 855.99976 55.474615 855.99976 53.474615 
L 855.99976 25.118365 
Q 855.99976 23.118365 853.99976 23.118365 
L 802.62476 23.118365 
Q 800.62476 23.118365 800.62476 25.118365 
L 800.62476 53.474615 
Q 800.62476 55.474615 802.62476 55.474615 
z
" style="fill: #ffffff; opacity: 0.8; stroke: #cccccc; stroke-linejoin: miter"/>
    </g>
    <g id="line2d_24">
     <path d="M 804.62476 31.216803 
L 814.62476 31.216803 
L 824.62476 31.216803 
" style="fill: none; stroke: #1d4ed8; stroke-width: 1.5; stroke-linecap: square"/>
    </g>
    <g id="text_14">
     <!-- PC1 -->
     <g transform="translate(832.62476 34.716803) scale(0.1 -0.1)">
      <use xlink:href="#DejaVuSans-50"/>
      <use xlink:href="#DejaVuSans-43" transform="translate(60.302734 0)"/>
      <use xlink:href="#DejaVuSans-31" transform="translate(130.126953 0)"/>
     </g>
    </g>
    <g id="line2d_25">
     <path d="M 804.62476 45.894928 
L 814.62476 45.894928 
L 824.62476 45.894928 
" style="fill: none; stroke: #c2410c; stroke-width: 1.5; stroke-linecap: square"/>
    </g>
    <g id="text_15">
     <!-- PC2 -->
     <g transform="translate(832.62476 49.394928) scale(0.1 -0.1)">
      <use xlink:href="#DejaVuSans-50"/>
      <use xlink:href="#DejaVuSans-43" transform="translate(60.302734 0)"/>
      <use xlink:href="#DejaVuSans-32" transform="translate(130.126953 0)"/>
     </g>
    </g>
   </g>
  </g>
 </g>
 <defs>
  <clipPath id="p307c92c44b">
   <rect x="47.961178" y="18.118365" width="813.038582" height="344.525145"/>
  </clipPath>
 </defs>
</svg>
